<?xml version="1.0" standalone="no"?>
<!DOCTYPE svg PUBLIC "-//W3C//DTD SVG 1.1//EN" "http://www.w3.org/Graphics/SVG/1.1/DTD/svg11.dtd" >
<svg xmlns="http://www.w3.org/2000/svg" xmlns:xlink="http://www.w3.org/1999/xlink" version="1.1">
<metadata>
Created by FontForge 20201107 at Wed Jul 13 00:44:13 2016
 By Jimmy Wärting
Copyright \(c\) 2016 by Matthew Desmond. All rights reserved.
</metadata>
<defs>
<font id="AbelPro-Regular" horiz-adv-x="454" >
  <font-face 
    font-family="Abel Pro"
    font-weight="400"
    font-stretch="normal"
    units-per-em="1000"
    panose-1="2 0 5 6 3 0 0 2 0 4"
    ascent="750"
    descent="-250"
    x-height="500"
    cap-height="700"
    bbox="-50 -295 950 979"
    underline-thickness="40"
    underline-position="-200"
    unicode-range="U+000D-FB02"
  />
<missing-glyph horiz-adv-x="1000" 
 />
    <glyph glyph-name=".notdef" horiz-adv-x="1000" 
 />
    <glyph glyph-name="NULL" horiz-adv-x="0" 
 />
    <glyph glyph-name="NULL" horiz-adv-x="0" 
 />
    <glyph glyph-name="CR" unicode="&#xd;" horiz-adv-x="230" 
 />
    <glyph glyph-name="space" unicode=" " horiz-adv-x="230" 
 />
    <glyph glyph-name="numbersign" unicode="#" horiz-adv-x="640" 
d="M80 472v50h115l15 178h59l-15 -178h162l15 178h59l-15 -178h105v-50h-110l-20 -244h110v-50h-115l-15 -178h-59l15 178h-162l-15 -178h-59l15 178h-105v50h110l20 244h-110zM249 472l-20 -244h162l20 244h-162z" />
    <glyph glyph-name="dollar" unicode="$" horiz-adv-x="519" 
d="M290 -120h-50v110c-93 0 -170 77 -170 172v28l63 10v-38c0 -61 47 -109 107 -112v284c-85 32 -170 67 -170 191v13c0 94 77 172 170 172v90h50v-90c92 -3 169 -78 169 -172v-18l-63 -10v28c0 59 -47 109 -106 112v-271c85 -32 174 -73 174 -196v-21
c0 -95 -77 -172 -172 -172h-2v-110zM401 162v21c0 73 -50 108 -111 132v-265c60 0 111 51 111 112zM133 538v-13c0 -69 47 -100 107 -126v251c-61 -3 -107 -53 -107 -112z" />
    <glyph glyph-name="percent" unicode="%" horiz-adv-x="675" 
d="M258 617v-170c0 -47 -38 -87 -87 -87h-14c-49 0 -87 40 -87 87v170c0 47 38 87 87 87h14c49 0 87 -40 87 -87zM210 447v170c0 23 -18 40 -41 40h-10c-23 0 -41 -17 -41 -40v-170c0 -23 18 -40 41 -40h10c23 0 41 17 41 40zM605 253v-170c0 -47 -38 -87 -87 -87h-14
c-49 0 -87 40 -87 87v170c0 47 38 87 87 87h14c49 0 87 -40 87 -87zM557 83v170c0 23 -18 40 -41 40h-10c-23 0 -41 -17 -41 -40v-170c0 -23 18 -40 41 -40h10c23 0 41 17 41 40zM166 0h-56l399 700h56z" />
    <glyph glyph-name="ampersand" unicode="&#x26;" horiz-adv-x="621" 
d="M245 382h296v-59h-97v-168c3 -60 32 -105 92 -105h15l-9 -60h-9c-56 0 -99 26 -124 67c-32 -41 -81 -67 -137 -67h-30c-95 0 -172 77 -172 172v38c0 67 36 123 91 152c-55 29 -91 85 -91 152v34c0 95 77 172 172 172h30c95 0 172 -77 172 -172v-5l-63 -10v15
c0 61 -51 112 -112 112h-24c-61 0 -112 -51 -112 -112v-44c0 -61 51 -112 112 -112zM245 50h24c59 0 109 46 112 107v165h-136c-61 0 -112 -51 -112 -112v-48c0 -61 51 -112 112 -112z" />
    <glyph glyph-name="quotesingle" unicode="'" horiz-adv-x="195" 
d="M145 700l-50 -215h-25v215h75z" />
    <glyph glyph-name="parenleft" unicode="(" horiz-adv-x="334" 
d="M60 292c0 218 88 371 209 492l35 -35c-107 -112 -184 -269 -184 -457s77 -345 184 -457l-35 -35c-120 120 -209 274 -209 492z" />
    <glyph glyph-name="parenright" unicode=")" horiz-adv-x="334" 
d="M274 292c0 -218 -89 -372 -209 -492l-35 35c107 112 184 269 184 457s-77 345 -184 457l35 35c121 -121 209 -274 209 -492z" />
    <glyph glyph-name="asterisk" unicode="*" horiz-adv-x="485" 
d="M326 335l-83 140l-84 -140l-58 42l108 122l-159 36l22 67l150 -64l-15 162h71l-15 -162l150 64l22 -67l-159 -36l108 -122z" />
    <glyph glyph-name="plus" unicode="+" horiz-adv-x="580" 
d="M40 319v63h218v218h63v-218h219v-63h-219v-219h-63v219h-218z" />
    <glyph glyph-name="comma" unicode="," horiz-adv-x="215" 
d="M145 75l-50 -215h-25v215h75z" />
    <glyph glyph-name="hyphen" unicode="-" horiz-adv-x="287" 
d="M237 306h-187v57h187v-57z" />
    <glyph glyph-name="period" unicode="." horiz-adv-x="215" 
d="M145 0h-75v75h75v-75z" />
    <glyph glyph-name="slash" unicode="/" horiz-adv-x="382" 
d="M83 -60h-63l279 820h63z" />
    <glyph glyph-name="zero" unicode="0" horiz-adv-x="514" 
d="M444 538v-376c0 -95 -77 -172 -172 -172h-30c-95 0 -172 77 -172 172v376c0 95 77 172 172 172h30c95 0 172 -77 172 -172zM381 162v376c0 61 -51 112 -112 112h-24c-61 0 -112 -51 -112 -112v-376c0 -61 51 -112 112 -112h24c61 0 112 51 112 112z" />
    <glyph glyph-name="one" unicode="1" horiz-adv-x="517" 
d="M477 0h-397v60h167v580l-167 -70v60l167 70h63v-640h167v-60z" />
    <glyph glyph-name="two" unicode="2" horiz-adv-x="494" 
d="M254 650h-24c-61 0 -112 -51 -112 -112v-28l-63 10v18c0 95 77 172 172 172h30c95 0 172 -71 172 -182s-73 -228 -145 -317c-43 -52 -91 -102 -145 -151h295v-60h-394v50c61 50 115 102 163 156c81 92 163 211 163 322c0 83 -54 122 -112 122z" />
    <glyph glyph-name="three" unicode="3" horiz-adv-x="514" 
d="M444 210v-48c0 -95 -77 -172 -172 -172h-30c-95 0 -172 77 -172 172v18l63 10v-28c0 -61 51 -112 112 -112h24c61 0 112 51 112 112v58c0 61 -51 112 -112 112h-47v60h47c61 0 112 51 112 112v34c0 61 -51 112 -112 112h-24c-61 0 -112 -51 -112 -112v-28l-63 10v18
c0 95 77 172 172 172h30c95 0 172 -77 172 -172v-24c0 -67 -36 -123 -91 -152c55 -29 91 -85 91 -152z" />
    <glyph glyph-name="four" unicode="4" horiz-adv-x="504" 
d="M434 121h-60v-121h-63v121h-281v30l311 549h33v-519h60v-60zM311 181v347l-193 -347h193z" />
    <glyph glyph-name="five" unicode="5" horiz-adv-x="514" 
d="M444 298v-136c0 -95 -77 -172 -172 -172h-30c-95 0 -172 77 -172 172v11h63v-11c0 -61 51 -112 112 -112h24c61 0 112 51 112 112v136c0 61 -51 112 -112 112h-24c-61 0 -112 -51 -112 -112h-63l40 402h299v-60h-240l-23 -215c31 28 71 45 116 45h10
c95 0 172 -77 172 -172z" />
    <glyph glyph-name="six" unicode="6" horiz-adv-x="514" 
d="M454 250v-88c0 -95 -77 -172 -172 -172h-30c-95 0 -172 77 -172 172v376c0 95 77 172 172 172h30c95 0 172 -77 172 -172v-18l-63 -10v28c0 61 -51 112 -112 112h-24c-61 0 -112 -51 -112 -112v-174c32 35 78 58 129 58h10c95 0 172 -77 172 -172zM391 162v88
c0 61 -51 112 -112 112h-24c-61 0 -112 -51 -112 -112v-88c0 -61 51 -112 112 -112h24c61 0 112 51 112 112z" />
    <glyph glyph-name="seven" unicode="7" horiz-adv-x="514" 
d="M464 670l-274 -670h-66l262 640h-243v-93h-63v153h384v-30z" />
    <glyph glyph-name="eight" unicode="8" horiz-adv-x="514" 
d="M444 220v-58c0 -95 -77 -172 -172 -172h-30c-95 0 -172 77 -172 172v58c0 60 30 111 75 142c-45 31 -75 82 -75 142v34c0 95 77 172 172 172h30c95 0 172 -77 172 -172v-34c0 -60 -30 -111 -75 -142c45 -31 75 -82 75 -142zM381 504v34c0 61 -51 112 -112 112h-24
c-61 0 -112 -51 -112 -112v-34c0 -61 51 -112 112 -112h24c61 0 112 51 112 112zM381 162v58c0 61 -51 112 -112 112h-24c-61 0 -112 -51 -112 -112v-58c0 -61 51 -112 112 -112h24c61 0 112 51 112 112z" />
    <glyph glyph-name="nine" unicode="9" horiz-adv-x="514" 
d="M454 538v-376c0 -95 -77 -172 -172 -172h-30c-95 0 -172 77 -172 172v18l63 10v-28c0 -61 51 -112 112 -112h24c61 0 112 51 112 112v174c-32 -35 -78 -58 -129 -58h-10c-95 0 -172 77 -172 172v88c0 95 77 172 172 172h30c95 0 172 -77 172 -172zM391 450v88
c0 61 -51 112 -112 112h-24c-61 0 -112 -51 -112 -112v-88c0 -61 51 -112 112 -112h24c61 0 112 51 112 112z" />
    <glyph glyph-name="colon" unicode=":" horiz-adv-x="215" 
d="M145 425h-75v75h75v-75zM145 0h-75v75h75v-75z" />
    <glyph glyph-name="semicolon" unicode=";" horiz-adv-x="215" 
d="M145 425h-75v75h75v-75zM145 75l-50 -215h-25v215h75z" />
    <glyph glyph-name="less" unicode="&#x3c;" horiz-adv-x="610" 
d="M50 386l500 223v-69l-429 -190l429 -189v-69l-500 223v71z" />
    <glyph glyph-name="equal" unicode="=" horiz-adv-x="660" 
d="M80 475h500v-63h-500v63zM80 289h500v-63h-500v63z" />
    <glyph glyph-name="greater" unicode="&#x3e;" horiz-adv-x="610" 
d="M60 161l428 189l-428 190v69l500 -223v-71l-500 -223v69z" />
    <glyph glyph-name="question" unicode="?" horiz-adv-x="464" 
d="M237 0h-75v75h75v-75zM231 231v-19h-63v19c0 171 183 150 183 298v9c0 61 -51 112 -112 112h-14c-61 0 -112 -51 -112 -112v-28l-63 10v18c0 95 77 172 172 172h20c95 0 172 -77 172 -172v-9c0 -180 -183 -166 -183 -298z" />
    <glyph glyph-name="at" unicode="@" horiz-adv-x="999" 
d="M689 500l-52 -376c-9 -65 18 -95 73 -95c79 0 157 121 157 288c0 192 -115 335 -316 335c-240 0 -419 -214 -419 -465c0 -192 105 -339 305 -339c73 0 141 20 180 43l20 -46c-64 -39 -143 -55 -208 -55c-230 0 -359 168 -359 389c0 285 213 531 489 531
c229 0 370 -165 370 -385c0 -157 -75 -350 -231 -350c-71 0 -105 33 -125 76c-33 -37 -79 -61 -128 -61h-15c-80 0 -137 69 -126 147l31 226c11 81 88 147 168 147h15c49 0 89 -24 110 -61l41 51h20zM396 366l-33 -232c-7 -44 20 -87 75 -87h40c48 0 91 39 99 87l33 232
c5 44 -28 87 -75 87h-40c-48 0 -91 -39 -99 -87z" />
    <glyph glyph-name="A" unicode="A" horiz-adv-x="464" 
d="M389 0l-46 163h-222l-46 -163h-65l205 700h33l206 -700h-65zM230 546l-92 -323h188l-92 323l-2 26z" />
    <glyph glyph-name="B" unicode="B" horiz-adv-x="514" 
d="M474 217v-45c0 -95 -77 -172 -172 -172h-222v700h222c95 0 172 -77 172 -172v-7c0 -67 -36 -123 -91 -152c55 -29 91 -85 91 -152zM411 172v55c0 61 -51 112 -112 112h-156v-279h156c61 0 112 51 112 112zM411 511v17c0 61 -51 112 -112 112h-156v-241h156
c61 0 112 51 112 112z" />
    <glyph glyph-name="C" unicode="C" horiz-adv-x="524" 
d="M464 190v-28c0 -95 -77 -172 -172 -172h-50c-95 0 -172 77 -172 172v376c0 95 77 172 172 172h50c95 0 172 -77 172 -172v-28l-63 -10v38c0 61 -51 112 -112 112h-44c-61 0 -112 -51 -112 -112v-376c0 -61 51 -112 112 -112h44c61 0 112 51 112 112v38z" />
    <glyph glyph-name="D" unicode="D" horiz-adv-x="544" 
d="M474 528v-356c0 -95 -77 -172 -172 -172h-222v700h222c95 0 172 -77 172 -172zM411 172v356c0 61 -51 112 -112 112h-156v-580h156c61 0 112 51 112 112z" />
    <glyph glyph-name="E" unicode="E" horiz-adv-x="514" 
d="M474 0h-394v700h394v-60h-331v-260h268v-60h-268v-260h331v-60z" />
    <glyph glyph-name="F" unicode="F" horiz-adv-x="494" 
d="M474 640h-331v-260h268v-60h-268v-320h-63v700h394v-60z" />
    <glyph glyph-name="G" unicode="G" horiz-adv-x="534" 
d="M464 368v-368h-20l-37 56c-31 -40 -75 -66 -128 -66h-37c-95 0 -172 77 -172 172v376c0 95 77 172 172 172h50c95 0 172 -77 172 -172v-28l-63 -10v38c0 61 -51 112 -112 112h-44c-61 0 -112 -51 -112 -112v-376c0 -61 51 -112 112 -112h44c61 0 112 51 112 112v146h-112
v60h175z" />
    <glyph glyph-name="H" unicode="H" horiz-adv-x="554" 
d="M474 0h-63v320h-268v-320h-63v700h63v-320h268v320h63v-700z" />
    <glyph glyph-name="I" unicode="I" horiz-adv-x="223" 
d="M143 0h-63v700h63v-700z" />
    <glyph glyph-name="J" unicode="J" 
d="M394 700v-538c0 -95 -77 -172 -172 -172h-20c-95 0 -172 77 -172 172v28l63 10v-38c0 -61 51 -112 112 -112h14c61 0 112 51 112 112v538h63z" />
    <glyph glyph-name="K" unicode="K" horiz-adv-x="520" 
d="M500 0h-78l-264 350l264 350h78l-269 -350zM143 0h-63v700h63v-700z" />
    <glyph glyph-name="L" unicode="L" horiz-adv-x="421" 
d="M401 0h-331v700h63v-640h268v-60z" />
    <glyph glyph-name="M" unicode="M" horiz-adv-x="654" 
d="M574 0h-63v480l-4 -30l-163 -450h-33l-164 450l-4 30v-480h-63v700h33l212 -574l2 -26l2 26l212 574h33v-700z" />
    <glyph glyph-name="N" unicode="N" horiz-adv-x="554" 
d="M474 0h-33l-292 510l-6 30v-540h-63v700h33l292 -510l6 -30v540h63v-700z" />
    <glyph glyph-name="O" unicode="O" horiz-adv-x="534" 
d="M464 538v-376c0 -95 -77 -172 -172 -172h-50c-95 0 -172 77 -172 172v376c0 95 77 172 172 172h50c95 0 172 -77 172 -172zM401 162v376c0 61 -51 112 -112 112h-44c-61 0 -112 -51 -112 -112v-376c0 -61 51 -112 112 -112h44c61 0 112 51 112 112z" />
    <glyph glyph-name="P" unicode="P" horiz-adv-x="514" 
d="M474 528v-87c0 -95 -77 -172 -172 -172h-159v-269h-63v700h222c95 0 172 -77 172 -172zM411 441v87c0 61 -51 112 -112 112h-156v-311h156c61 0 112 51 112 112z" />
    <glyph glyph-name="Q" unicode="Q" horiz-adv-x="534" 
d="M464 538v-376c0 -91 -71 -164 -159 -172l64 -144h-63l-64 144c-95 0 -172 77 -172 172v376c0 95 77 172 172 172h50c95 0 172 -77 172 -172zM401 162v376c0 61 -51 112 -112 112h-44c-61 0 -112 -51 -112 -112v-376c0 -61 51 -112 112 -112h44c61 0 112 51 112 112z" />
    <glyph glyph-name="R" unicode="R" horiz-adv-x="522" 
d="M482 0h-73l-190 299h-86v-299h-63v700h222c95 0 172 -77 172 -172v-57c0 -95 -77 -172 -172 -172zM401 471v57c0 61 -51 112 -112 112h-156v-281h156c61 0 112 51 112 112z" />
    <glyph glyph-name="S" unicode="S" horiz-adv-x="519" 
d="M464 183v-21c0 -95 -82 -172 -177 -172h-50c-95 0 -177 77 -177 172v28l63 10v-38c0 -61 55 -112 117 -112h44c62 0 117 51 117 112v21c0 193 -331 101 -331 342v13c0 95 77 172 172 172h45c95 0 172 -77 172 -172v-18l-63 -10v28c0 61 -51 112 -112 112h-39
c-61 0 -112 -51 -112 -112v-13c0 -181 331 -102 331 -342z" />
    <glyph glyph-name="T" unicode="T" horiz-adv-x="437" 
d="M417 640h-167v-640h-63v640h-167v60h397v-60z" />
    <glyph glyph-name="U" unicode="U" horiz-adv-x="534" 
d="M464 700v-538c0 -95 -77 -172 -172 -172h-50c-95 0 -172 77 -172 172v538h63v-538c0 -61 51 -112 112 -112h44c61 0 112 51 112 112v538h63z" />
    <glyph glyph-name="V" unicode="V" horiz-adv-x="464" 
d="M75 700l155 -546l2 -26l2 26l155 546h65l-206 -700h-33l-205 700h65z" />
    <glyph glyph-name="W" unicode="W" horiz-adv-x="753" 
d="M733 700l-185 -700h-33l-136 527l-2 27l-3 -27l-135 -527h-33l-186 700h63l137 -532l2 -26l2 26l135 532h35l135 -532l2 -26l2 26l137 532h63z" />
    <glyph glyph-name="X" unicode="X" horiz-adv-x="484" 
d="M454 0h-68l-144 291l-144 -291h-68l178 360l-168 340h68l134 -271l134 271h68l-168 -340z" />
    <glyph glyph-name="Y" unicode="Y" horiz-adv-x="464" 
d="M444 700l-180 -365v-335h-63v334l-181 366h68l144 -291l144 291h68z" />
    <glyph glyph-name="Z" unicode="Z" horiz-adv-x="474" 
d="M434 0h-394v30l312 610h-302v60h384v-30l-312 -610h312v-60z" />
    <glyph glyph-name="bracketleft" unicode="[" horiz-adv-x="309" 
d="M259 -146v-54h-179v984h179v-54h-119v-876h119z" />
    <glyph glyph-name="backslash" unicode="\" horiz-adv-x="382" 
d="M362 -60h-63l-279 820h63z" />
    <glyph glyph-name="bracketright" unicode="]" horiz-adv-x="309" 
d="M50 -200v54h119v876h-119v54h179v-984h-179z" />
    <glyph glyph-name="asciicircum" unicode="^" horiz-adv-x="539" 
d="M303 700l176 -321h-67l-143 263l-142 -263h-67l176 321h67z" />
    <glyph glyph-name="underscore" unicode="_" horiz-adv-x="548" 
d="M-1 -143h550v-57h-550v57z" />
    <glyph glyph-name="grave" unicode="`" horiz-adv-x="380" 
d="M235 580l-135 120h100l80 -120h-45z" />
    <glyph glyph-name="a" unicode="a" horiz-adv-x="459" 
d="M394 0h-20l-33 50c-27 -36 -70 -60 -119 -60h-15c-81 0 -147 66 -147 147v5c0 81 66 147 147 147h127v77c0 48 -39 87 -87 87h-35c-48 0 -87 -39 -87 -87v-18l-60 10v5c0 81 66 147 147 147h35c81 0 147 -66 147 -147v-363zM334 134v108h-127c-48 0 -87 -39 -87 -87v-21
c0 -48 39 -87 87 -87h40c48 0 87 39 87 87z" />
    <glyph glyph-name="b" unicode="b" horiz-adv-x="459" 
d="M399 363v-226c0 -81 -66 -147 -147 -147h-40c-81 0 -147 66 -147 147v563h60v-242c27 32 67 52 112 52h15c81 0 147 -66 147 -147zM339 134v232c0 48 -39 87 -87 87h-40c-48 0 -87 -39 -87 -87v-232c0 -48 39 -87 87 -87h40c48 0 87 39 87 87z" />
    <glyph glyph-name="c" unicode="c" 
d="M394 157v-20c0 -81 -66 -147 -147 -147h-40c-81 0 -147 66 -147 147v226c0 81 66 147 147 147h40c81 0 147 -66 147 -147v-20l-60 -10v33c0 48 -39 87 -87 87h-40c-48 0 -87 -39 -87 -87v-232c0 -48 39 -87 87 -87h40c48 0 87 39 87 87v33z" />
    <glyph glyph-name="d" unicode="d" horiz-adv-x="464" 
d="M394 0h-20l-33 51c-27 -37 -70 -61 -119 -61h-15c-81 0 -147 66 -147 147v226c0 81 66 147 147 147h15c45 0 85 -20 112 -52v242h60v-700zM334 134v232c0 48 -39 87 -87 87h-40c-48 0 -87 -39 -87 -87v-232c0 -48 39 -87 87 -87h40c48 0 87 39 87 87z" />
    <glyph glyph-name="e" unicode="e" 
d="M394 157v-20c0 -81 -66 -147 -147 -147h-40c-81 0 -147 66 -147 147v226c0 81 66 147 147 147h40c81 0 147 -66 147 -147v-118h-274v-111c0 -48 39 -87 87 -87h40c48 0 87 39 87 87v33zM334 292v74c0 48 -39 87 -87 87h-40c-48 0 -87 -39 -87 -87v-74h214z" />
    <glyph glyph-name="f" unicode="f" horiz-adv-x="287" 
d="M287 643h-55c-40 0 -72 -32 -72 -72v-71h117v-57h-117v-443h-60v443h-90v57h90v68c0 72 60 132 132 132h55v-57z" />
    <glyph glyph-name="g" unicode="g" 
d="M399 -61v-2c0 -81 -66 -137 -147 -137h-25c-81 0 -147 56 -147 137v2c0 39 15 72 40 96c-31 19 -51 53 -51 92c0 35 15 67 42 86c-31 27 -51 67 -51 112v38c0 81 66 147 147 147h25c49 0 92 -24 119 -61l33 51h20v-175c0 -81 -66 -147 -147 -147h-87
c-28 0 -51 -23 -51 -51s23 -51 51 -51h82c81 0 147 -56 147 -137zM344 322v44c0 48 -39 87 -87 87h-50c-48 0 -87 -39 -87 -87v-44c0 -48 39 -87 87 -87h50c48 0 87 39 87 87zM342 -66v8c0 48 -39 77 -87 77h-31c-48 0 -87 -29 -87 -77v-8c0 -48 39 -77 87 -77h31
c48 0 87 29 87 77z" />
    <glyph glyph-name="h" unicode="h" horiz-adv-x="469" 
d="M404 0h-60v366c0 48 -39 87 -87 87h-40c-48 0 -87 -39 -87 -87v-366h-60v700h60v-242c27 32 67 52 112 52h15c81 0 147 -66 147 -147v-363z" />
    <glyph glyph-name="i" unicode="i" horiz-adv-x="200" 
d="M135 620h-70v80h70v-80zM130 0h-60v500h60v-500z" />
    <glyph glyph-name="j" unicode="j" horiz-adv-x="200" 
d="M135 620h-70v80h70v-80zM130 500v-553c0 -81 -66 -147 -147 -147v57c48 0 87 39 87 87v556h60z" />
    <glyph glyph-name="k" unicode="k" horiz-adv-x="425" 
d="M424 0h-78l-204 250l204 250h78l-209 -250zM130 0h-60v700h60v-700z" />
    <glyph glyph-name="l" unicode="l" horiz-adv-x="200" 
d="M130 0h-60v700h60v-700z" />
    <glyph glyph-name="m" unicode="m" horiz-adv-x="723" 
d="M658 0h-60v366c0 48 -39 87 -87 87h-30c-48 0 -87 -39 -87 -87v-366h-60v366c0 48 -39 87 -87 87h-30c-48 0 -87 -39 -87 -87v-366h-60v500h20l33 -51c27 37 70 61 119 61h5c56 0 105 -30 129 -77c25 47 74 77 130 77h5c81 0 147 -66 147 -147v-363z" />
    <glyph glyph-name="n" unicode="n" horiz-adv-x="469" 
d="M404 0h-60v366c0 48 -39 87 -87 87h-40c-48 0 -87 -39 -87 -87v-366h-60v500h20l33 -51c27 37 70 61 119 61h15c81 0 147 -66 147 -147v-363z" />
    <glyph glyph-name="o" unicode="o" 
d="M394 363v-226c0 -81 -66 -147 -147 -147h-40c-81 0 -147 66 -147 147v226c0 81 66 147 147 147h40c81 0 147 -66 147 -147zM334 134v232c0 48 -39 87 -87 87h-40c-48 0 -87 -39 -87 -87v-232c0 -48 39 -87 87 -87h40c48 0 87 39 87 87z" />
    <glyph glyph-name="p" unicode="p" horiz-adv-x="464" 
d="M404 363v-226c0 -81 -66 -147 -147 -147h-15c-45 0 -85 20 -112 52v-242h-60v700h20l33 -51c27 37 70 61 119 61h15c81 0 147 -66 147 -147zM344 134v232c0 48 -39 87 -87 87h-40c-48 0 -87 -39 -87 -87v-232c0 -48 39 -87 87 -87h40c48 0 87 39 87 87z" />
    <glyph glyph-name="q" unicode="q" horiz-adv-x="464" 
d="M394 -200h-60v242c-27 -32 -67 -52 -112 -52h-15c-81 0 -147 66 -147 147v226c0 81 66 147 147 147h15c49 0 92 -24 119 -61l33 51h20v-700zM334 134v232c0 48 -39 87 -87 87h-40c-48 0 -87 -39 -87 -87v-232c0 -48 39 -87 87 -87h40c48 0 87 39 87 87z" />
    <glyph glyph-name="r" unicode="r" horiz-adv-x="297" 
d="M277 443h-60c-48 0 -87 -39 -87 -87v-356h-60v500h20l33 -51c27 37 70 61 119 61h35v-67z" />
    <glyph glyph-name="s" unicode="s" horiz-adv-x="459" 
d="M404 127c0 -81 -72 -137 -152 -137h-40c-80 0 -152 66 -152 147v20l60 10v-33c0 -48 44 -87 92 -87h40c48 0 92 29 92 77c0 143 -274 58 -274 249c0 81 66 137 147 137h35c81 0 147 -66 147 -147v-2l-60 -10v15c0 48 -39 87 -87 87h-35c-48 0 -87 -29 -87 -77
c0 -137 274 -58 274 -249z" />
    <glyph glyph-name="t" unicode="t" horiz-adv-x="347" 
d="M297 0h-55c-72 0 -132 60 -132 132v311h-90v57h90v120l60 10v-130h127v-57h-127v-314c0 -40 32 -72 72 -72h55v-57z" />
    <glyph glyph-name="u" unicode="u" horiz-adv-x="469" 
d="M399 0h-20l-33 51c-27 -37 -70 -61 -119 -61h-15c-81 0 -147 66 -147 147v363h60v-366c0 -48 39 -87 87 -87h40c48 0 87 39 87 87v366h60v-500z" />
    <glyph glyph-name="v" unicode="v" horiz-adv-x="404" 
d="M394 500l-177 -500h-30l-177 500h60l130 -379l2 -26l2 26l130 379h60z" />
    <glyph glyph-name="w" unicode="w" horiz-adv-x="658" 
d="M648 500l-167 -500h-33l-117 377l-2 26l-2 -26l-117 -377h-33l-167 500h61l119 -378l2 -26l2 26l117 378h36l117 -378l2 -26l2 26l119 378h61z" />
    <glyph glyph-name="x" unicode="x" horiz-adv-x="424" 
d="M384 0h-65l-107 192l-107 -192h-65l140 250l-140 250h65l107 -192l107 192h65l-140 -250z" />
    <glyph glyph-name="y" unicode="y" horiz-adv-x="394" 
d="M394 500l-253 -700h-58l89 243l-162 457h60l130 -379l2 -26l2 26l130 379h60z" />
    <glyph glyph-name="z" unicode="z" horiz-adv-x="414" 
d="M374 0h-334v27l252 416h-242v57h324v-27l-252 -416h252v-57z" />
    <glyph glyph-name="braceleft" unicode="{" horiz-adv-x="380" 
d="M163 -28v181c0 68 -47 112 -112 112h-11v54h16c63 3 107 45 107 112v181c0 100 73 172 172 172h5v-54h-5c-65 0 -112 -44 -112 -112v-181c0 -64 -29 -116 -76 -145c47 -31 76 -81 76 -145v-181c0 -68 47 -112 112 -112h5v-54h-5c-99 0 -172 72 -172 172z" />
    <glyph glyph-name="bar" unicode="|" horiz-adv-x="223" 
d="M143 -200h-63v984h63v-984z" />
    <glyph glyph-name="braceright" unicode="}" horiz-adv-x="380" 
d="M217 153v-181c0 -100 -73 -172 -172 -172h-5v54h5c65 0 112 44 112 112v181c0 64 29 114 76 145c-47 29 -76 81 -76 145v181c0 68 -47 112 -112 112h-5v54h5c99 0 172 -72 172 -172v-181c0 -68 47 -112 112 -112h11v-54h-16c-64 -3 -107 -47 -107 -112z" />
    <glyph glyph-name="asciitilde" unicode="~" horiz-adv-x="481" 
d="M322 295c36 0 57 31 57 71h52c0 -69 -36 -126 -110 -126c-77 0 -111 72 -162 72c-35 0 -57 -30 -57 -71h-52c0 69 37 126 110 126c75 0 112 -72 162 -72z" />
    <glyph glyph-name="uni00A0" unicode="&#xa0;" horiz-adv-x="230" 
 />
    <glyph glyph-name="exclamdown" unicode="&#xa1;" horiz-adv-x="209" 
d="M122 288l27 -488h-89l27 488h35zM67 500h75v-75h-75v75z" />
    <glyph glyph-name="cent" unicode="&#xa2;" 
d="M143 -10h-53l38 123c-41 27 -68 72 -68 124v226c0 81 66 147 147 147h40c13 0 23 -1 32 -4l32 104h53l-38 -123c41 -27 68 -72 68 -124v-20l-60 -10v33c0 24 -10 46 -26 62l-116 -380c3 -1 8 -1 15 -1h40c48 0 87 39 87 87v33l60 -10v-20c0 -81 -66 -147 -147 -147h-40
c-11 0 -22 1 -32 3zM120 466v-232c0 -24 9 -45 26 -62l116 379c-7 1 -12 2 -15 2h-40c-48 0 -87 -39 -87 -87z" />
    <glyph glyph-name="sterling" unicode="&#xa3;" horiz-adv-x="541" 
d="M60 335h88c-19 64 -38 127 -38 203c0 95 77 172 172 172h14c95 0 172 -77 172 -172v-18l-63 -10v28c0 61 -51 112 -112 112h-8c-61 0 -112 -51 -112 -112c0 -72 22 -135 42 -203h166v-50h-153c8 -36 14 -73 14 -113c0 -43 -14 -81 -37 -112h266v-60h-411v60h17
c63 0 102 49 102 112c0 39 -7 76 -16 113h-103v50z" />
    <glyph glyph-name="currency" unicode="&#xa4;" horiz-adv-x="604" 
d="M61 547l44 45l73 -74c35 27 77 41 124 41s88 -14 123 -41l74 74l44 -45l-73 -73c25 -35 40 -76 40 -123s-14 -88 -41 -123l75 -75l-45 -44l-75 74c-35 -26 -76 -39 -122 -39c-47 0 -88 13 -123 39l-74 -74l-45 44l75 75c-27 35 -40 76 -40 123c0 46 13 87 39 122z
M155 351c0 -83 64 -149 147 -149s148 66 148 149s-65 150 -148 150s-147 -67 -147 -150z" />
    <glyph glyph-name="yen" unicode="&#xa5;" horiz-adv-x="464" 
d="M60 347h134l-174 353h68l144 -291l144 291h68l-174 -353h134v-50h-140v-65h140v-50h-140v-182h-63v182h-141v50h141v65h-141v50z" />
    <glyph glyph-name="brokenbar" unicode="&#xa6;" horiz-adv-x="223" 
d="M143 -200h-63v442h63v-442zM143 342h-63v442h63v-442z" />
    <glyph glyph-name="section" unicode="&#xa7;" horiz-adv-x="524" 
d="M70 525v13c0 95 77 172 172 172h45c95 0 172 -77 172 -172v-18l-63 -10v28c0 61 -51 112 -112 112h-39c-61 0 -112 -51 -112 -112v-13c0 -181 331 -102 331 -342v-21c0 -31 -9 -60 -24 -85c15 -25 24 -55 24 -94v-21c0 -95 -82 -172 -177 -172h-50
c-95 0 -177 77 -177 172v28l63 10v-38c0 -61 55 -112 117 -112h44c62 0 117 51 117 112v21c0 193 -331 101 -331 342v13c0 32 8 62 25 90c-16 25 -25 56 -25 97zM401 162v21c0 136 -163 130 -259 198c-6 -13 -9 -28 -9 -43v-13c0 -128 164 -125 261 -198c4 11 7 22 7 35z
" />
    <glyph glyph-name="dieresis" unicode="&#xa8;" horiz-adv-x="464" 
d="M175 601h-75v75h75v-75zM364 601h-75v75h75v-75z" />
    <glyph glyph-name="copyright" unicode="&#xa9;" horiz-adv-x="820" 
d="M50 350c0 199 161 360 360 360s360 -161 360 -360s-161 -360 -360 -360s-360 161 -360 360zM106 350c0 -171 133 -308 304 -308s304 137 304 308s-133 308 -304 308s-304 -137 -304 -308zM537 262v-25c0 -61 -51 -112 -112 -112h-30c-61 0 -112 51 -112 112v226
c0 61 51 112 112 112h30c61 0 112 -51 112 -112v-25l-56 -9v34c0 32 -26 58 -58 58h-26c-32 0 -58 -26 -58 -58v-226c0 -32 26 -58 58 -58h26c32 0 58 26 58 58v34z" />
    <glyph glyph-name="ordfeminine" unicode="&#xaa;" horiz-adv-x="350" 
d="M280 388h-20l-18 26c-17 -19 -43 -32 -70 -32h-9c-52 0 -93 43 -93 96c0 52 41 93 93 93h71v42c0 25 -20 47 -47 47h-21c-27 0 -47 -22 -47 -47v-18l-46 12c0 53 41 97 93 97h21c52 0 93 -42 93 -93v-223zM234 473v60h-71c-27 0 -47 -20 -47 -47v-13c0 -25 20 -47 47 -47
h24c27 0 47 22 47 47zM70 270v38h210v-38h-210z" />
    <glyph glyph-name="guillemotleft" unicode="&#xab;" horiz-adv-x="469" 
d="M409 61l-20 -20l-184 187l184 187l20 -20l-122 -167zM244 61l-20 -20l-184 187l184 187l20 -20l-122 -167z" />
    <glyph glyph-name="logicalnot" unicode="&#xac;" horiz-adv-x="620" 
d="M60 382h500v-231h-63v168h-437v63z" />
    <glyph glyph-name="uni00AD" unicode="&#xad;" horiz-adv-x="0" 
 />
    <glyph glyph-name="registered" unicode="&#xae;" horiz-adv-x="820" 
d="M50 350c0 199 161 360 360 360s360 -161 360 -360s-161 -360 -360 -360s-360 161 -360 360zM106 350c0 -171 133 -308 304 -308s304 137 304 308s-133 308 -304 308s-304 -137 -304 -308zM555 131h-64l-102 161h-40v-161h-56v438h142c61 0 112 -51 112 -112v-52
c0 -57 -39 -105 -95 -112zM491 405v52c0 32 -26 58 -58 58h-84v-169h84c32 0 58 26 58 59z" />
    <glyph glyph-name="macron" unicode="&#xaf;" horiz-adv-x="493" 
d="M120 601v48h253v-48h-253z" />
    <glyph glyph-name="degree" unicode="&#xb0;" horiz-adv-x="418" 
d="M70 571c0 77 62 139 139 139s139 -62 139 -139s-62 -139 -139 -139s-139 62 -139 139zM126 571c0 -47 36 -84 83 -84s83 37 83 84s-36 84 -83 84s-83 -37 -83 -84z" />
    <glyph glyph-name="plusminus" unicode="&#xb1;" horiz-adv-x="660" 
d="M80 100h218v219h-218v63h218v218h63v-218h219v-63h-219v-219h219v-63h-500v63z" />
    <glyph glyph-name="twosuperior" unicode="&#xb2;" horiz-adv-x="338" 
d="M177 657h-11c-23 0 -41 -18 -41 -41v-23l-48 6v17c0 48 40 88 87 88h14c49 0 87 -36 87 -92c0 -44 -29 -94 -57 -133c-17 -23 -36 -45 -57 -68h117v-47h-198v38c27 22 51 45 73 69c37 41 74 93 74 141c0 31 -19 45 -40 45z" />
    <glyph glyph-name="threesuperior" unicode="&#xb3;" horiz-adv-x="328" 
d="M258 469v-22c0 -47 -38 -87 -87 -87h-14c-49 0 -87 40 -87 87v17l48 7v-24c0 -23 18 -40 41 -40h10c23 0 41 17 41 40v26c0 23 -18 41 -41 41h-31v47h31c23 0 41 17 41 40v16c0 23 -18 40 -41 40h-10c-23 0 -41 -17 -41 -40v-24l-48 7v17c0 47 38 87 87 87h14
c49 0 87 -40 87 -87v-11c0 -30 -11 -53 -32 -69c19 -16 32 -41 32 -68z" />
    <glyph glyph-name="acute" unicode="&#xb4;" horiz-adv-x="380" 
d="M280 700l-135 -120h-45l80 120h100z" />
    <glyph glyph-name="mu" unicode="&#xb5;" horiz-adv-x="488" 
d="M237 -10h-15c-33 0 -63 10 -87 29v-163h-60v644h60v-366c0 -48 39 -87 87 -87h40c48 0 87 39 87 87v366h60v-369c0 -40 32 -72 72 -72h7v-59h-5c-51 0 -94 26 -117 65c-31 -52 -84 -75 -129 -75z" />
    <glyph glyph-name="paragraph" unicode="&#xb6;" horiz-adv-x="564" 
d="M335 640v-840h-63v509h-50c-95 0 -172 77 -172 172v47c0 95 77 172 172 172h262v-900h-63v840h-86z" />
    <glyph glyph-name="periodcentered" unicode="&#xb7;" horiz-adv-x="215" 
d="M145 320h-75v75h75v-75z" />
    <glyph glyph-name="cedilla" unicode="&#xb8;" horiz-adv-x="362" 
d="M158 -73l45 73h42l-29 -50c12 -6 46 -26 46 -70c0 -51 -38 -81 -90 -81c-29 0 -53 12 -72 31l23 35c7 -8 25 -22 50 -22c24 0 43 14 43 39c0 31 -27 48 -58 45z" />
    <glyph glyph-name="onesuperior" unicode="&#xb9;" horiz-adv-x="339" 
d="M269 364h-199v47h76v237l-76 -32v49l85 35h39v-289h75v-47z" />
    <glyph glyph-name="ordmasculine" unicode="&#xba;" horiz-adv-x="350" 
d="M280 611v-136c0 -51 -41 -93 -93 -93h-24c-52 0 -93 42 -93 93v136c0 51 41 93 93 93h24c52 0 93 -42 93 -93zM234 473v140c0 25 -20 47 -47 47h-24c-27 0 -47 -22 -47 -47v-140c0 -25 20 -47 47 -47h24c27 0 47 22 47 47zM70 270v38h210v-38h-210z" />
    <glyph glyph-name="guillemotright" unicode="&#xbb;" horiz-adv-x="469" 
d="M80 41l-20 20l122 167l-122 167l20 20l184 -187zM245 41l-20 20l122 167l-122 167l20 20l184 -187z" />
    <glyph glyph-name="onequarter" unicode="&#xbc;" horiz-adv-x="666" 
d="M596 58h-27v-58h-44v58h-127v23l143 254h28v-234h27v-43zM525 101v118l-65 -118h65zM196 0h-56l399 700h56zM269 364h-199v47h76v237l-76 -32v49l85 35h39v-289h75v-47z" />
    <glyph glyph-name="onehalf" unicode="&#xbd;" horiz-adv-x="707" 
d="M269 364h-199v47h76v237l-76 -32v49l85 35h39v-289h75v-47zM546 293h-11c-23 0 -41 -18 -41 -41v-23l-48 6v17c0 48 40 88 87 88h14c49 0 87 -36 87 -92c0 -44 -29 -94 -57 -133c-17 -23 -36 -45 -57 -68h117v-47h-198v38c27 22 51 45 73 69c37 41 74 93 74 141
c0 31 -19 45 -40 45zM196 0h-56l399 700h56z" />
    <glyph glyph-name="threequarters" unicode="&#xbe;" horiz-adv-x="666" 
d="M258 469v-22c0 -47 -38 -87 -87 -87h-14c-49 0 -87 40 -87 87v17l48 7v-24c0 -23 18 -40 41 -40h10c23 0 41 17 41 40v26c0 23 -18 41 -41 41h-31v47h31c23 0 41 17 41 40v16c0 23 -18 40 -41 40h-10c-23 0 -41 -17 -41 -40v-24l-48 7v17c0 47 38 87 87 87h14
c49 0 87 -40 87 -87v-11c0 -30 -11 -53 -32 -69c19 -16 32 -41 32 -68zM596 58h-27v-58h-44v58h-127v23l143 254h28v-234h27v-43zM525 101v118l-65 -118h65zM196 0h-56l399 700h56z" />
    <glyph glyph-name="questiondown" unicode="&#xbf;" horiz-adv-x="464" 
d="M227 500h75v-75h-75v75zM233 269v19h63v-19c0 -171 -183 -150 -183 -298v-9c0 -61 51 -112 112 -112h14c61 0 112 51 112 112v28l63 -10v-18c0 -95 -77 -172 -172 -172h-20c-95 0 -172 77 -172 172v9c0 180 183 166 183 298z" />
    <glyph glyph-name="Agrave" unicode="&#xc0;" horiz-adv-x="464" 
d="M389 0l-46 163h-222l-46 -163h-65l205 700h33l206 -700h-65zM230 546l-92 -323h188l-92 323l-2 26zM257 780l-135 120h100l80 -120h-45z" />
    <glyph glyph-name="Aacute" unicode="&#xc1;" horiz-adv-x="464" 
d="M389 0l-46 163h-222l-46 -163h-65l205 700h33l206 -700h-65zM230 546l-92 -323h188l-92 323l-2 26zM342 900l-135 -120h-45l80 120h100z" />
    <glyph glyph-name="Acircumflex" unicode="&#xc2;" horiz-adv-x="464" 
d="M389 0l-46 163h-222l-46 -163h-65l205 700h33l206 -700h-65zM230 546l-92 -323h188l-92 323l-2 26zM262 900l100 -120h-60l-70 80l-70 -80h-60l100 120h60z" />
    <glyph glyph-name="Atilde" unicode="&#xc3;" horiz-adv-x="464" 
d="M389 0l-46 163h-222l-46 -163h-65l205 700h33l206 -700h-65zM230 546l-92 -323h188l-92 323l-2 26zM299 844c27 0 42 23 42 56h46c0 -59 -29 -105 -89 -105c-61 0 -93 56 -133 56c-27 0 -41 -23 -41 -55h-46c0 59 29 104 89 104c58 0 86 -56 132 -56z" />
    <glyph glyph-name="Adieresis" unicode="&#xc4;" horiz-adv-x="464" 
d="M389 0l-46 163h-222l-46 -163h-65l205 700h33l206 -700h-65zM230 546l-92 -323h188l-92 323l-2 26zM175 801h-75v75h75v-75zM364 801h-75v75h75v-75z" />
    <glyph glyph-name="Aring" unicode="&#xc5;" horiz-adv-x="464" 
d="M129 755c0 57 46 104 103 104s104 -47 104 -104c0 -47 -32 -87 -75 -99l193 -656h-65l-46 163h-222l-46 -163h-65l192 656c-43 13 -73 52 -73 99zM230 546l-92 -323h188l-92 323l-2 26zM179 755c0 -29 24 -54 53 -54c31 0 54 25 54 54c0 31 -23 55 -54 55
c-29 0 -53 -24 -53 -55z" />
    <glyph glyph-name="AE" unicode="&#xc6;" horiz-adv-x="863" 
d="M823 0h-394v163h-257l-97 -163h-65l419 700h394v-60h-331v-260h268v-60h-268v-260h331v-60zM208 223h221v377l-10 -26z" />
    <glyph glyph-name="Ccedilla" unicode="&#xc7;" horiz-adv-x="524" 
d="M209 -73l39 63h-6c-95 0 -172 77 -172 172v376c0 95 77 172 172 172h50c95 0 172 -77 172 -172v-28l-63 -10v38c0 61 -51 112 -112 112h-44c-61 0 -112 -51 -112 -112v-376c0 -61 51 -112 112 -112h44c61 0 112 51 112 112v38l63 -10v-28c0 -95 -77 -172 -172 -172h-2
l-23 -40c12 -6 46 -26 46 -70c0 -51 -38 -81 -90 -81c-29 0 -53 12 -72 31l23 35c7 -8 25 -22 50 -22c24 0 43 14 43 39c0 31 -27 48 -58 45z" />
    <glyph glyph-name="Egrave" unicode="&#xc8;" horiz-adv-x="514" 
d="M474 0h-394v700h394v-60h-331v-260h268v-60h-268v-260h331v-60zM282 780l-135 120h100l80 -120h-45z" />
    <glyph glyph-name="Eacute" unicode="&#xc9;" horiz-adv-x="514" 
d="M474 0h-394v700h394v-60h-331v-260h268v-60h-268v-260h331v-60zM387 900l-135 -120h-45l80 120h100z" />
    <glyph glyph-name="Ecircumflex" unicode="&#xca;" horiz-adv-x="514" 
d="M474 0h-394v700h394v-60h-331v-260h268v-60h-268v-260h331v-60zM307 900l100 -120h-60l-70 80l-70 -80h-60l100 120h60z" />
    <glyph glyph-name="Edieresis" unicode="&#xcb;" horiz-adv-x="514" 
d="M474 0h-394v700h394v-60h-331v-260h268v-60h-268v-260h331v-60zM200 801h-75v75h75v-75zM389 801h-75v75h75v-75z" />
    <glyph glyph-name="Igrave" unicode="&#xcc;" horiz-adv-x="223" 
d="M143 0h-63v700h63v-700zM137 780l-135 120h100l80 -120h-45z" />
    <glyph glyph-name="Iacute" unicode="&#xcd;" horiz-adv-x="223" 
d="M143 0h-63v700h63v-700zM222 900l-135 -120h-45l80 120h100z" />
    <glyph glyph-name="Icircumflex" unicode="&#xce;" horiz-adv-x="223" 
d="M143 0h-63v700h63v-700zM142 900l100 -120h-60l-70 80l-70 -80h-60l100 120h60z" />
    <glyph glyph-name="Idieresis" unicode="&#xcf;" horiz-adv-x="223" 
d="M143 0h-63v700h63v-700zM55 801h-75v75h75v-75zM244 801h-75v75h75v-75z" />
    <glyph glyph-name="Eth" unicode="&#xd0;" horiz-adv-x="556" 
d="M30 335h62v365h222c95 0 172 -77 172 -172v-356c0 -95 -77 -172 -172 -172h-222v285h-62v50zM423 172v356c0 61 -51 112 -112 112h-156v-305h117v-50h-117v-225h156c61 0 112 51 112 112z" />
    <glyph glyph-name="Ntilde" unicode="&#xd1;" horiz-adv-x="554" 
d="M474 0h-33l-292 510l-6 30v-540h-63v700h33l292 -510l6 -30v540h63v-700zM343 844c27 0 42 23 42 56h46c0 -59 -29 -105 -89 -105c-61 0 -93 56 -133 56c-27 0 -41 -23 -41 -55h-46c0 59 29 104 89 104c58 0 86 -56 132 -56z" />
    <glyph glyph-name="Ograve" unicode="&#xd2;" horiz-adv-x="534" 
d="M464 538v-376c0 -95 -77 -172 -172 -172h-50c-95 0 -172 77 -172 172v376c0 95 77 172 172 172h50c95 0 172 -77 172 -172zM401 162v376c0 61 -51 112 -112 112h-44c-61 0 -112 -51 -112 -112v-376c0 -61 51 -112 112 -112h44c61 0 112 51 112 112zM302 780l-135 120h100
l80 -120h-45z" />
    <glyph glyph-name="Oacute" unicode="&#xd3;" horiz-adv-x="534" 
d="M464 538v-376c0 -95 -77 -172 -172 -172h-50c-95 0 -172 77 -172 172v376c0 95 77 172 172 172h50c95 0 172 -77 172 -172zM401 162v376c0 61 -51 112 -112 112h-44c-61 0 -112 -51 -112 -112v-376c0 -61 51 -112 112 -112h44c61 0 112 51 112 112zM387 900l-135 -120
h-45l80 120h100z" />
    <glyph glyph-name="Ocircumflex" unicode="&#xd4;" horiz-adv-x="534" 
d="M464 538v-376c0 -95 -77 -172 -172 -172h-50c-95 0 -172 77 -172 172v376c0 95 77 172 172 172h50c95 0 172 -77 172 -172zM401 162v376c0 61 -51 112 -112 112h-44c-61 0 -112 -51 -112 -112v-376c0 -61 51 -112 112 -112h44c61 0 112 51 112 112zM297 900l100 -120h-60
l-70 80l-70 -80h-60l100 120h60z" />
    <glyph glyph-name="Otilde" unicode="&#xd5;" horiz-adv-x="534" 
d="M464 538v-376c0 -95 -77 -172 -172 -172h-50c-95 0 -172 77 -172 172v376c0 95 77 172 172 172h50c95 0 172 -77 172 -172zM401 162v376c0 61 -51 112 -112 112h-44c-61 0 -112 -51 -112 -112v-376c0 -61 51 -112 112 -112h44c61 0 112 51 112 112zM333 844
c27 0 42 23 42 56h46c0 -59 -29 -105 -89 -105c-61 0 -93 56 -133 56c-27 0 -41 -23 -41 -55h-46c0 59 29 104 89 104c58 0 86 -56 132 -56z" />
    <glyph glyph-name="Odieresis" unicode="&#xd6;" horiz-adv-x="534" 
d="M464 538v-376c0 -95 -77 -172 -172 -172h-50c-95 0 -172 77 -172 172v376c0 95 77 172 172 172h50c95 0 172 -77 172 -172zM401 162v376c0 61 -51 112 -112 112h-44c-61 0 -112 -51 -112 -112v-376c0 -61 51 -112 112 -112h44c61 0 112 51 112 112zM210 801h-75v75h75
v-75zM399 801h-75v75h75v-75z" />
    <glyph glyph-name="multiply" unicode="&#xd7;" horiz-adv-x="584" 
d="M51 547l44 45l197 -197l197 197l44 -45l-196 -196l197 -198l-45 -44l-197 197l-197 -197l-45 44l197 198z" />
    <glyph glyph-name="Oslash" unicode="&#xd8;" horiz-adv-x="534" 
d="M103 -30h-53l48 97c-19 28 -28 60 -28 95v376c0 95 77 172 172 172h50c41 0 80 -15 109 -39l30 59h53l-49 -98c19 -27 29 -59 29 -94v-376c0 -95 -77 -172 -172 -172h-50c-42 0 -79 13 -110 39zM401 162v376c0 7 -1 15 -2 22l-238 -473c21 -23 49 -37 84 -37h44
c61 0 112 51 112 112zM133 538v-376c0 -8 -1 -15 2 -22l237 473c-20 23 -50 37 -83 37h-44c-61 0 -112 -51 -112 -112z" />
    <glyph glyph-name="Ugrave" unicode="&#xd9;" horiz-adv-x="534" 
d="M464 700v-538c0 -95 -77 -172 -172 -172h-50c-95 0 -172 77 -172 172v538h63v-538c0 -61 51 -112 112 -112h44c61 0 112 51 112 112v538h63zM282 780l-135 120h100l80 -120h-45z" />
    <glyph glyph-name="Uacute" unicode="&#xda;" horiz-adv-x="534" 
d="M464 700v-538c0 -95 -77 -172 -172 -172h-50c-95 0 -172 77 -172 172v538h63v-538c0 -61 51 -112 112 -112h44c61 0 112 51 112 112v538h63zM387 900l-135 -120h-45l80 120h100z" />
    <glyph glyph-name="Ucircumflex" unicode="&#xdb;" horiz-adv-x="534" 
d="M464 700v-538c0 -95 -77 -172 -172 -172h-50c-95 0 -172 77 -172 172v538h63v-538c0 -61 51 -112 112 -112h44c61 0 112 51 112 112v538h63zM297 900l100 -120h-60l-70 80l-70 -80h-60l100 120h60z" />
    <glyph glyph-name="Udieresis" unicode="&#xdc;" horiz-adv-x="534" 
d="M464 700v-538c0 -95 -77 -172 -172 -172h-50c-95 0 -172 77 -172 172v538h63v-538c0 -61 51 -112 112 -112h44c61 0 112 51 112 112v538h63zM210 801h-75v75h75v-75zM399 801h-75v75h75v-75z" />
    <glyph glyph-name="Yacute" unicode="&#xdd;" horiz-adv-x="464" 
d="M444 700l-180 -365v-335h-63v334l-181 366h68l144 -291l144 291h68zM362 900l-135 -120h-45l80 120h100z" />
    <glyph glyph-name="Thorn" unicode="&#xde;" horiz-adv-x="514" 
d="M474 390v-57c0 -95 -77 -172 -172 -172h-159v-161h-63v700h63v-138h159c95 0 172 -77 172 -172zM411 333v57c0 61 -51 112 -112 112h-156v-281h156c61 0 112 51 112 112z" />
    <glyph glyph-name="germandbls" unicode="&#xdf;" horiz-adv-x="514" 
d="M230 0v57h54c61 0 112 51 112 112v64c0 61 -51 112 -112 112h-54v57h54c61 0 112 51 112 112v27c0 61 -51 112 -112 112h-29c-61 0 -112 -51 -112 -112v-541h-60v538c0 95 74 172 169 172h32c95 0 172 -77 172 -172v-12c0 -67 -36 -123 -91 -152c55 -29 91 -85 91 -152
v-50c0 -95 -77 -172 -172 -172h-54z" />
    <glyph glyph-name="agrave" unicode="&#xe0;" 
d="M394 0h-20l-33 50c-27 -36 -70 -60 -119 -60h-15c-81 0 -147 66 -147 147v5c0 81 66 147 147 147h127v77c0 48 -39 87 -87 87h-35c-48 0 -87 -39 -87 -87v-18l-60 10v5c0 81 66 147 147 147h35c81 0 147 -66 147 -147v-363zM334 134v108h-127c-48 0 -87 -39 -87 -87v-21
c0 -48 39 -87 87 -87h40c48 0 87 39 87 87zM252 580l-135 120h100l80 -120h-45z" />
    <glyph glyph-name="aacute" unicode="&#xe1;" 
d="M394 0h-20l-33 50c-27 -36 -70 -60 -119 -60h-15c-81 0 -147 66 -147 147v5c0 81 66 147 147 147h127v77c0 48 -39 87 -87 87h-35c-48 0 -87 -39 -87 -87v-18l-60 10v5c0 81 66 147 147 147h35c81 0 147 -66 147 -147v-363zM334 134v108h-127c-48 0 -87 -39 -87 -87v-21
c0 -48 39 -87 87 -87h40c48 0 87 39 87 87zM337 700l-135 -120h-45l80 120h100z" />
    <glyph glyph-name="acircumflex" unicode="&#xe2;" 
d="M394 0h-20l-33 50c-27 -36 -70 -60 -119 -60h-15c-81 0 -147 66 -147 147v5c0 81 66 147 147 147h127v77c0 48 -39 87 -87 87h-35c-48 0 -87 -39 -87 -87v-18l-60 10v5c0 81 66 147 147 147h35c81 0 147 -66 147 -147v-363zM334 134v108h-127c-48 0 -87 -39 -87 -87v-21
c0 -48 39 -87 87 -87h40c48 0 87 39 87 87zM267 700l100 -120h-60l-70 80l-70 -80h-60l100 120h60z" />
    <glyph glyph-name="atilde" unicode="&#xe3;" 
d="M394 0h-20l-33 50c-27 -36 -70 -60 -119 -60h-15c-81 0 -147 66 -147 147v5c0 81 66 147 147 147h127v77c0 48 -39 87 -87 87h-35c-48 0 -87 -39 -87 -87v-18l-60 10v5c0 81 66 147 147 147h35c81 0 147 -66 147 -147v-363zM334 134v108h-127c-48 0 -87 -39 -87 -87v-21
c0 -48 39 -87 87 -87h40c48 0 87 39 87 87zM294 644c27 0 42 23 42 56h46c0 -59 -29 -105 -89 -105c-61 0 -93 56 -133 56c-27 0 -41 -23 -41 -55h-46c0 59 29 104 89 104c58 0 86 -56 132 -56z" />
    <glyph glyph-name="adieresis" unicode="&#xe4;" 
d="M394 0h-20l-33 50c-27 -36 -70 -60 -119 -60h-15c-81 0 -147 66 -147 147v5c0 81 66 147 147 147h127v77c0 48 -39 87 -87 87h-35c-48 0 -87 -39 -87 -87v-18l-60 10v5c0 81 66 147 147 147h35c81 0 147 -66 147 -147v-363zM334 134v108h-127c-48 0 -87 -39 -87 -87v-21
c0 -48 39 -87 87 -87h40c48 0 87 39 87 87zM180 601h-75v75h75v-75zM369 601h-75v75h75v-75z" />
    <glyph glyph-name="aring" unicode="&#xe5;" 
d="M394 0h-20l-33 50c-27 -36 -70 -60 -119 -60h-15c-81 0 -147 66 -147 147v5c0 81 66 147 147 147h127v77c0 48 -39 87 -87 87h-35c-48 0 -87 -39 -87 -87v-18l-60 10v5c0 81 66 147 147 147h35c81 0 147 -66 147 -147v-363zM334 134v108h-127c-48 0 -87 -39 -87 -87v-21
c0 -48 39 -87 87 -87h40c48 0 87 39 87 87zM126 663c0 57 46 104 103 104s104 -47 104 -104s-47 -103 -104 -103s-103 46 -103 103zM176 663c0 -29 24 -54 53 -54c31 0 54 25 54 54c0 31 -23 55 -54 55c-29 0 -53 -24 -53 -55z" />
    <glyph glyph-name="ae" unicode="&#xe6;" horiz-adv-x="728" 
d="M668 157v-20c0 -81 -66 -147 -147 -147h-40c-56 0 -104 30 -129 75c-36 -59 -83 -75 -130 -75h-15c-81 0 -147 66 -147 147v5c0 81 66 147 147 147h127v80c-3 45 -40 84 -87 84h-35c-48 0 -87 -39 -87 -87v-18l-60 10v5c0 81 66 147 147 147h35c47 0 90 -23 117 -59
c27 36 69 59 117 59h40c81 0 147 -66 147 -147v-118h-274v-111c0 -48 39 -87 87 -87h40c48 0 87 39 87 87v33zM334 134v108h-127c-48 0 -87 -39 -87 -87v-21c0 -48 39 -87 87 -87h40c48 0 87 39 87 87zM608 292v74c0 48 -39 87 -87 87h-40c-47 0 -87 -38 -87 -84v-77h214z
" />
    <glyph glyph-name="ccedilla" unicode="&#xe7;" 
d="M174 -73l39 63h-6c-81 0 -147 66 -147 147v226c0 81 66 147 147 147h40c81 0 147 -66 147 -147v-20l-60 -10v33c0 48 -39 87 -87 87h-40c-48 0 -87 -39 -87 -87v-232c0 -48 39 -87 87 -87h40c48 0 87 39 87 87v33l60 -10v-20c0 -78 -62 -142 -139 -147l-23 -40
c12 -6 46 -26 46 -70c0 -51 -38 -81 -90 -81c-29 0 -53 12 -72 31l23 35c7 -8 25 -22 50 -22c24 0 43 14 43 39c0 31 -27 48 -58 45z" />
    <glyph glyph-name="egrave" unicode="&#xe8;" 
d="M394 157v-20c0 -81 -66 -147 -147 -147h-40c-81 0 -147 66 -147 147v226c0 81 66 147 147 147h40c81 0 147 -66 147 -147v-118h-274v-111c0 -48 39 -87 87 -87h40c48 0 87 39 87 87v33zM334 292v74c0 48 -39 87 -87 87h-40c-48 0 -87 -39 -87 -87v-74h214zM252 580
l-135 120h100l80 -120h-45z" />
    <glyph glyph-name="eacute" unicode="&#xe9;" 
d="M394 157v-20c0 -81 -66 -147 -147 -147h-40c-81 0 -147 66 -147 147v226c0 81 66 147 147 147h40c81 0 147 -66 147 -147v-118h-274v-111c0 -48 39 -87 87 -87h40c48 0 87 39 87 87v33zM334 292v74c0 48 -39 87 -87 87h-40c-48 0 -87 -39 -87 -87v-74h214zM337 700
l-135 -120h-45l80 120h100z" />
    <glyph glyph-name="ecircumflex" unicode="&#xea;" 
d="M394 157v-20c0 -81 -66 -147 -147 -147h-40c-81 0 -147 66 -147 147v226c0 81 66 147 147 147h40c81 0 147 -66 147 -147v-118h-274v-111c0 -48 39 -87 87 -87h40c48 0 87 39 87 87v33zM334 292v74c0 48 -39 87 -87 87h-40c-48 0 -87 -39 -87 -87v-74h214zM267 700
l100 -120h-60l-70 80l-70 -80h-60l100 120h60z" />
    <glyph glyph-name="edieresis" unicode="&#xeb;" 
d="M394 157v-20c0 -81 -66 -147 -147 -147h-40c-81 0 -147 66 -147 147v226c0 81 66 147 147 147h40c81 0 147 -66 147 -147v-118h-274v-111c0 -48 39 -87 87 -87h40c48 0 87 39 87 87v33zM334 292v74c0 48 -39 87 -87 87h-40c-48 0 -87 -39 -87 -87v-74h214zM180 601h-75
v75h75v-75zM369 601h-75v75h75v-75z" />
    <glyph glyph-name="igrave" unicode="&#xec;" horiz-adv-x="220" 
d="M140 0h-60v500h60v-500zM135 580l-135 120h100l80 -120h-45z" />
    <glyph glyph-name="iacute" unicode="&#xed;" horiz-adv-x="220" 
d="M140 0h-60v500h60v-500zM220 700l-135 -120h-45l80 120h100z" />
    <glyph glyph-name="icircumflex" unicode="&#xee;" horiz-adv-x="220" 
d="M140 0h-60v500h60v-500zM140 700l100 -120h-60l-70 80l-70 -80h-60l100 120h60z" />
    <glyph glyph-name="idieresis" unicode="&#xef;" horiz-adv-x="220" 
d="M140 0h-60v500h60v-500zM53 601h-75v75h75v-75zM242 601h-75v75h75v-75z" />
    <glyph glyph-name="eth" unicode="&#xf0;" 
d="M145 589l98 28c-27 32 -60 60 -92 83h72c25 -17 50 -39 74 -67l107 31l10 -32l-96 -28c45 -65 76 -149 76 -241v-226c0 -81 -66 -147 -147 -147h-40c-81 0 -147 66 -147 147v226c0 81 66 147 147 147h40c21 0 42 -5 62 -14c-9 32 -23 63 -44 93l-111 -32zM334 134v232
c0 48 -39 87 -87 87h-40c-48 0 -87 -39 -87 -87v-232c0 -48 39 -87 87 -87h40c48 0 87 39 87 87z" />
    <glyph glyph-name="ntilde" unicode="&#xf1;" 
d="M394 0h-60v366c0 48 -39 87 -87 87h-40c-48 0 -87 -39 -87 -87v-366h-60v500h20l33 -51c27 37 70 61 119 61h15c81 0 147 -66 147 -147v-363zM294 644c27 0 42 23 42 56h46c0 -59 -29 -105 -89 -105c-61 0 -93 56 -133 56c-27 0 -41 -23 -41 -55h-46c0 59 29 104 89 104
c58 0 86 -56 132 -56z" />
    <glyph glyph-name="ograve" unicode="&#xf2;" 
d="M394 363v-226c0 -81 -66 -147 -147 -147h-40c-81 0 -147 66 -147 147v226c0 81 66 147 147 147h40c81 0 147 -66 147 -147zM334 134v232c0 48 -39 87 -87 87h-40c-48 0 -87 -39 -87 -87v-232c0 -48 39 -87 87 -87h40c48 0 87 39 87 87zM252 580l-135 120h100l80 -120h-45
z" />
    <glyph glyph-name="oacute" unicode="&#xf3;" 
d="M394 363v-226c0 -81 -66 -147 -147 -147h-40c-81 0 -147 66 -147 147v226c0 81 66 147 147 147h40c81 0 147 -66 147 -147zM334 134v232c0 48 -39 87 -87 87h-40c-48 0 -87 -39 -87 -87v-232c0 -48 39 -87 87 -87h40c48 0 87 39 87 87zM337 700l-135 -120h-45l80 120h100
z" />
    <glyph glyph-name="ocircumflex" unicode="&#xf4;" 
d="M394 363v-226c0 -81 -66 -147 -147 -147h-40c-81 0 -147 66 -147 147v226c0 81 66 147 147 147h40c81 0 147 -66 147 -147zM334 134v232c0 48 -39 87 -87 87h-40c-48 0 -87 -39 -87 -87v-232c0 -48 39 -87 87 -87h40c48 0 87 39 87 87zM257 700l100 -120h-60l-70 80
l-70 -80h-60l100 120h60z" />
    <glyph glyph-name="otilde" unicode="&#xf5;" 
d="M394 363v-226c0 -81 -66 -147 -147 -147h-40c-81 0 -147 66 -147 147v226c0 81 66 147 147 147h40c81 0 147 -66 147 -147zM334 134v232c0 48 -39 87 -87 87h-40c-48 0 -87 -39 -87 -87v-232c0 -48 39 -87 87 -87h40c48 0 87 39 87 87zM294 644c27 0 42 23 42 56h46
c0 -59 -29 -105 -89 -105c-61 0 -93 56 -133 56c-27 0 -41 -23 -41 -55h-46c0 59 29 104 89 104c58 0 86 -56 132 -56z" />
    <glyph glyph-name="odieresis" unicode="&#xf6;" 
d="M394 363v-226c0 -81 -66 -147 -147 -147h-40c-81 0 -147 66 -147 147v226c0 81 66 147 147 147h40c81 0 147 -66 147 -147zM334 134v232c0 48 -39 87 -87 87h-40c-48 0 -87 -39 -87 -87v-232c0 -48 39 -87 87 -87h40c48 0 87 39 87 87zM170 601h-75v75h75v-75zM359 601
h-75v75h75v-75z" />
    <glyph glyph-name="divide" unicode="&#xf7;" horiz-adv-x="580" 
d="M40 382h500v-63h-500v63zM222 537c0 37 31 68 68 68s68 -31 68 -68s-31 -68 -68 -68s-68 31 -68 68zM222 164c0 37 31 68 68 68s68 -31 68 -68s-31 -68 -68 -68s-68 31 -68 68z" />
    <glyph glyph-name="oslash" unicode="&#xf8;" horiz-adv-x="455" 
d="M83 -30h-53l53 87c-15 23 -23 50 -23 80v226c0 81 66 147 147 147h40c35 0 67 -13 92 -33l33 53h53l-54 -88c15 -23 23 -50 23 -79v-226c0 -81 -66 -147 -147 -147h-40c-35 0 -67 12 -92 32zM120 366v-232c0 -7 0 -12 1 -15l188 308c-16 16 -38 26 -62 26h-40
c-48 0 -87 -39 -87 -87zM334 134v232c0 4 -1 9 -1 13l-188 -307c17 -17 37 -25 62 -25h40c48 0 87 39 87 87z" />
    <glyph glyph-name="ugrave" unicode="&#xf9;" 
d="M394 0h-20l-33 51c-27 -37 -70 -61 -119 -61h-15c-81 0 -147 66 -147 147v363h60v-366c0 -48 39 -87 87 -87h40c48 0 87 39 87 87v366h60v-500zM232 580l-135 120h100l80 -120h-45z" />
    <glyph glyph-name="uacute" unicode="&#xfa;" 
d="M394 0h-20l-33 51c-27 -37 -70 -61 -119 -61h-15c-81 0 -147 66 -147 147v363h60v-366c0 -48 39 -87 87 -87h40c48 0 87 39 87 87v366h60v-500zM357 700l-135 -120h-45l80 120h100z" />
    <glyph glyph-name="ucircumflex" unicode="&#xfb;" 
d="M394 0h-20l-33 51c-27 -37 -70 -61 -119 -61h-15c-81 0 -147 66 -147 147v363h60v-366c0 -48 39 -87 87 -87h40c48 0 87 39 87 87v366h60v-500zM257 700l100 -120h-60l-70 80l-70 -80h-60l100 120h60z" />
    <glyph glyph-name="udieresis" unicode="&#xfc;" 
d="M394 0h-20l-33 51c-27 -37 -70 -61 -119 -61h-15c-81 0 -147 66 -147 147v363h60v-366c0 -48 39 -87 87 -87h40c48 0 87 39 87 87v366h60v-500zM170 601h-75v75h75v-75zM359 601h-75v75h75v-75z" />
    <glyph glyph-name="yacute" unicode="&#xfd;" horiz-adv-x="394" 
d="M394 500l-253 -700h-58l89 243l-162 457h60l130 -379l2 -26l2 26l130 379h60zM327 700l-135 -120h-45l80 120h100z" />
    <glyph glyph-name="thorn" unicode="&#xfe;" horiz-adv-x="464" 
d="M404 363v-226c0 -81 -66 -147 -147 -147h-15c-45 0 -85 20 -112 52v-242h-60v900h60v-242c27 32 67 52 112 52h15c81 0 147 -66 147 -147zM344 134v232c0 48 -39 87 -87 87h-40c-48 0 -87 -39 -87 -87v-232c0 -48 39 -87 87 -87h40c48 0 87 39 87 87z" />
    <glyph glyph-name="ydieresis" unicode="&#xff;" horiz-adv-x="394" 
d="M394 500l-253 -700h-58l89 243l-162 457h60l130 -379l2 -26l2 26l130 379h60zM150 601h-75v75h75v-75zM339 601h-75v75h75v-75z" />
    <glyph glyph-name="Amacron" unicode="&#x100;" horiz-adv-x="464" 
d="M389 0l-46 163h-222l-46 -163h-65l205 700h33l206 -700h-65zM230 546l-92 -323h188l-92 323l-2 26zM106 801v48h253v-48h-253z" />
    <glyph glyph-name="amacron" unicode="&#x101;" 
d="M394 0h-20l-33 50c-27 -36 -70 -60 -119 -60h-15c-81 0 -147 66 -147 147v5c0 81 66 147 147 147h127v77c0 48 -39 87 -87 87h-35c-48 0 -87 -39 -87 -87v-18l-60 10v5c0 81 66 147 147 147h35c81 0 147 -66 147 -147v-363zM334 134v108h-127c-48 0 -87 -39 -87 -87v-21
c0 -48 39 -87 87 -87h40c48 0 87 39 87 87zM111 601v48h253v-48h-253z" />
    <glyph glyph-name="Abreve" unicode="&#x102;" horiz-adv-x="464" 
d="M389 0l-46 163h-222l-46 -163h-65l205 700h33l206 -700h-65zM230 546l-92 -323h188l-92 323l-2 26zM100 893h46c0 -45 38 -67 86 -67s87 22 87 67h46c0 -75 -59 -113 -133 -113c-75 0 -132 38 -132 113z" />
    <glyph glyph-name="abreve" unicode="&#x103;" 
d="M394 0h-20l-33 50c-27 -36 -70 -60 -119 -60h-15c-81 0 -147 66 -147 147v5c0 81 66 147 147 147h127v77c0 48 -39 87 -87 87h-35c-48 0 -87 -39 -87 -87v-18l-60 10v5c0 81 66 147 147 147h35c81 0 147 -66 147 -147v-363zM334 134v108h-127c-48 0 -87 -39 -87 -87v-21
c0 -48 39 -87 87 -87h40c48 0 87 39 87 87zM105 706h46c0 -45 38 -67 86 -67s87 22 87 67h46c0 -75 -59 -113 -133 -113c-75 0 -132 38 -132 113z" />
    <glyph glyph-name="Aogonek" unicode="&#x104;" horiz-adv-x="464" 
d="M389 0l-46 163h-222l-46 -163h-65l205 700h33l206 -700c-6 -10 -11 -21 -16 -32c-8 -19 -16 -44 -16 -67c0 -39 20 -58 52 -58c15 0 26 5 35 10c5 3 10 6 15 11v-35c-5 -5 -11 -10 -18 -13c-11 -7 -27 -13 -47 -13c-47 0 -83 29 -83 85c0 31 9 59 20 79c6 12 13 23 21 33
h-28zM230 546l-92 -323h188l-92 323l-2 26z" />
    <glyph glyph-name="aogonek" unicode="&#x105;" 
d="M357 0l-16 50c-27 -36 -70 -60 -119 -60h-15c-81 0 -147 66 -147 147v5c0 81 66 147 147 147h127v77c0 48 -39 87 -87 87h-35c-48 0 -87 -39 -87 -87v-18l-60 10v5c0 81 66 147 147 147h35c81 0 147 -66 147 -147v-363c-6 -10 -11 -21 -16 -32c-8 -19 -16 -44 -16 -67
c0 -39 20 -58 52 -58c15 0 26 5 35 10c5 3 10 6 15 11v-35c-5 -5 -11 -10 -18 -13c-11 -7 -27 -13 -47 -13c-47 0 -83 29 -83 85c0 31 9 59 20 79c6 12 13 23 21 33zM334 134v108h-127c-48 0 -87 -39 -87 -87v-21c0 -48 39 -87 87 -87h40c48 0 87 39 87 87z" />
    <glyph glyph-name="Cacute" unicode="&#x106;" horiz-adv-x="524" 
d="M464 190v-28c0 -95 -77 -172 -172 -172h-50c-95 0 -172 77 -172 172v376c0 95 77 172 172 172h50c95 0 172 -77 172 -172v-28l-63 -10v38c0 61 -51 112 -112 112h-44c-61 0 -112 -51 -112 -112v-376c0 -61 51 -112 112 -112h44c61 0 112 51 112 112v38zM372 900
l-135 -120h-45l80 120h100z" />
    <glyph glyph-name="cacute" unicode="&#x107;" 
d="M394 157v-20c0 -81 -66 -147 -147 -147h-40c-81 0 -147 66 -147 147v226c0 81 66 147 147 147h40c81 0 147 -66 147 -147v-20l-60 -10v33c0 48 -39 87 -87 87h-40c-48 0 -87 -39 -87 -87v-232c0 -48 39 -87 87 -87h40c48 0 87 39 87 87v33zM337 700l-135 -120h-45l80 120
h100z" />
    <glyph glyph-name="Ccaron" unicode="&#x10c;" horiz-adv-x="524" 
d="M464 190v-28c0 -95 -77 -172 -172 -172h-50c-95 0 -172 77 -172 172v376c0 95 77 172 172 172h50c95 0 172 -77 172 -172v-28l-63 -10v38c0 61 -51 112 -112 112h-44c-61 0 -112 -51 -112 -112v-376c0 -61 51 -112 112 -112h44c61 0 112 51 112 112v38zM392 900
l-100 -120h-60l-100 120h60l70 -80l70 80h60z" />
    <glyph glyph-name="ccaron" unicode="&#x10d;" 
d="M394 157v-20c0 -81 -66 -147 -147 -147h-40c-81 0 -147 66 -147 147v226c0 81 66 147 147 147h40c81 0 147 -66 147 -147v-20l-60 -10v33c0 48 -39 87 -87 87h-40c-48 0 -87 -39 -87 -87v-232c0 -48 39 -87 87 -87h40c48 0 87 39 87 87v33zM357 700l-100 -120h-60
l-100 120h60l70 -80l70 80h60z" />
    <glyph glyph-name="Dcaron" unicode="&#x10e;" horiz-adv-x="544" 
d="M474 528v-356c0 -95 -77 -172 -172 -172h-222v700h222c95 0 172 -77 172 -172zM411 172v356c0 61 -51 112 -112 112h-156v-580h156c61 0 112 51 112 112zM402 900l-100 -120h-60l-100 120h60l70 -80l70 80h60z" />
    <glyph glyph-name="dcaron" unicode="&#x10f;" horiz-adv-x="570" 
d="M394 0h-20l-33 51c-27 -37 -70 -61 -119 -61h-15c-81 0 -147 66 -147 147v226c0 81 66 147 147 147h15c45 0 85 -20 112 -52v242h60v-700zM334 134v232c0 48 -39 87 -87 87h-40c-48 0 -87 -39 -87 -87v-232c0 -48 39 -87 87 -87h40c48 0 87 39 87 87zM560 700l-50 -215
h-25v215h75z" />
    <glyph glyph-name="Dcroat" unicode="&#x110;" horiz-adv-x="556" 
d="M30 335h62v365h222c95 0 172 -77 172 -172v-356c0 -95 -77 -172 -172 -172h-222v285h-62v50zM423 172v356c0 61 -51 112 -112 112h-156v-305h117v-50h-117v-225h156c61 0 112 51 112 112z" />
    <glyph glyph-name="dcroat" unicode="&#x111;" 
d="M394 0h-20l-33 51c-27 -37 -70 -61 -119 -61h-15c-81 0 -147 66 -147 147v226c0 81 66 147 147 147h15c45 0 85 -20 112 -52v117h-159v57h159v68h60v-68h57v-57h-57v-575zM334 134v232c0 48 -39 87 -87 87h-40c-48 0 -87 -39 -87 -87v-232c0 -48 39 -87 87 -87h40
c48 0 87 39 87 87z" />
    <glyph glyph-name="Emacron" unicode="&#x112;" horiz-adv-x="514" 
d="M474 0h-394v700h394v-60h-331v-260h268v-60h-268v-260h331v-60zM140 801v48h253v-48h-253z" />
    <glyph glyph-name="emacron" unicode="&#x113;" 
d="M394 157v-20c0 -81 -66 -147 -147 -147h-40c-81 0 -147 66 -147 147v226c0 81 66 147 147 147h40c81 0 147 -66 147 -147v-118h-274v-111c0 -48 39 -87 87 -87h40c48 0 87 39 87 87v33zM334 292v74c0 48 -39 87 -87 87h-40c-48 0 -87 -39 -87 -87v-74h214zM101 601v48
h253v-48h-253z" />
    <glyph glyph-name="Edotaccent" unicode="&#x116;" horiz-adv-x="514" 
d="M474 0h-394v700h394v-60h-331v-260h268v-60h-268v-260h331v-60zM314 801h-75v75h75v-75z" />
    <glyph glyph-name="edotaccent" unicode="&#x117;" 
d="M394 157v-20c0 -81 -66 -147 -147 -147h-40c-81 0 -147 66 -147 147v226c0 81 66 147 147 147h40c81 0 147 -66 147 -147v-118h-274v-111c0 -48 39 -87 87 -87h40c48 0 87 39 87 87v33zM334 292v74c0 48 -39 87 -87 87h-40c-48 0 -87 -39 -87 -87v-74h214zM264 601h-75
v75h75v-75z" />
    <glyph glyph-name="Eogonek" unicode="&#x118;" horiz-adv-x="514" 
d="M300 0h-220v700h394v-60h-331v-260h268v-60h-268v-260h331v-60h-137c-6 -10 -11 -21 -16 -32c-8 -19 -16 -44 -16 -67c0 -39 20 -58 52 -58c15 0 26 5 35 10c5 3 10 6 15 11v-35c-5 -5 -11 -10 -18 -13c-11 -7 -27 -13 -47 -13c-47 0 -83 29 -83 85c0 31 9 59 20 79
c6 12 13 23 21 33z" />
    <glyph glyph-name="eogonek" unicode="&#x119;" 
d="M394 157v-20c0 -64 -41 -118 -97 -138c-5 -5 -31 -55 -31 -98c0 -39 20 -58 52 -58c15 0 26 5 35 10c5 3 10 6 15 11v-35c-5 -5 -11 -10 -18 -13c-11 -7 -27 -13 -47 -13c-47 0 -83 29 -83 85c0 45 22 85 34 102h-7h-40c-81 0 -147 66 -147 147v226c0 81 66 147 147 147
h40c81 0 147 -66 147 -147v-118h-274v-111c0 -48 39 -87 87 -87h40c48 0 87 39 87 87v33zM334 292v74c0 48 -39 87 -87 87h-40c-48 0 -87 -39 -87 -87v-74h214z" />
    <glyph glyph-name="Ecaron" unicode="&#x11a;" horiz-adv-x="514" 
d="M474 0h-394v700h394v-60h-331v-260h268v-60h-268v-260h331v-60zM407 900l-100 -120h-60l-100 120h60l70 -80l70 80h60z" />
    <glyph glyph-name="ecaron" unicode="&#x11b;" 
d="M394 157v-20c0 -81 -66 -147 -147 -147h-40c-81 0 -147 66 -147 147v226c0 81 66 147 147 147h40c81 0 147 -66 147 -147v-118h-274v-111c0 -48 39 -87 87 -87h40c48 0 87 39 87 87v33zM334 292v74c0 48 -39 87 -87 87h-40c-48 0 -87 -39 -87 -87v-74h214zM357 700
l-100 -120h-60l-100 120h60l70 -80l70 80h60z" />
    <glyph glyph-name="Gbreve" unicode="&#x11e;" horiz-adv-x="534" 
d="M464 368v-368h-20l-37 56c-31 -40 -75 -66 -128 -66h-37c-95 0 -172 77 -172 172v376c0 95 77 172 172 172h50c95 0 172 -77 172 -172v-28l-63 -10v38c0 61 -51 112 -112 112h-44c-61 0 -112 -51 -112 -112v-376c0 -61 51 -112 112 -112h44c61 0 112 51 112 112v146h-112
v60h175zM134 893h46c0 -45 38 -67 86 -67s87 22 87 67h46c0 -75 -59 -113 -133 -113c-75 0 -132 38 -132 113z" />
    <glyph glyph-name="gbreve" unicode="&#x11f;" 
d="M399 -61v-2c0 -81 -66 -137 -147 -137h-25c-81 0 -147 56 -147 137v2c0 39 15 72 40 96c-31 19 -51 53 -51 92c0 35 15 67 42 86c-31 27 -51 67 -51 112v38c0 81 66 147 147 147h25c49 0 92 -24 119 -61l33 51h20v-175c0 -81 -66 -147 -147 -147h-87
c-28 0 -51 -23 -51 -51s23 -51 51 -51h82c81 0 147 -56 147 -137zM344 322v44c0 48 -39 87 -87 87h-50c-48 0 -87 -39 -87 -87v-44c0 -48 39 -87 87 -87h50c48 0 87 39 87 87zM342 -66v8c0 48 -39 77 -87 77h-31c-48 0 -87 -29 -87 -77v-8c0 -48 39 -77 87 -77h31
c48 0 87 29 87 77zM95 706h46c0 -45 38 -67 86 -67s87 22 87 67h46c0 -75 -59 -113 -133 -113c-75 0 -132 38 -132 113z" />
    <glyph glyph-name="Gcommaaccent" unicode="&#x122;" horiz-adv-x="534" 
d="M464 368v-368h-20l-37 56c-31 -40 -75 -66 -128 -66h-37c-95 0 -172 77 -172 172v376c0 95 77 172 172 172h50c95 0 172 -77 172 -172v-28l-63 -10v38c0 61 -51 112 -112 112h-44c-61 0 -112 -51 -112 -112v-376c0 -61 51 -112 112 -112h44c61 0 112 51 112 112v146h-112
v60h175zM304 -80l-50 -215h-25v215h75z" />
    <glyph glyph-name="gcommaaccent" unicode="&#x123;" 
d="M399 -61v-2c0 -81 -66 -137 -147 -137h-25c-81 0 -147 56 -147 137v2c0 39 15 72 40 96c-31 19 -51 53 -51 92c0 35 15 67 42 86c-31 27 -51 67 -51 112v38c0 81 66 147 147 147h25c49 0 92 -24 119 -61l33 51h20v-175c0 -81 -66 -147 -147 -147h-87
c-28 0 -51 -23 -51 -51s23 -51 51 -51h82c81 0 147 -56 147 -137zM344 322v44c0 48 -39 87 -87 87h-50c-48 0 -87 -39 -87 -87v-44c0 -48 39 -87 87 -87h50c48 0 87 39 87 87zM342 -66v8c0 48 -39 77 -87 77h-31c-48 0 -87 -29 -87 -77v-8c0 -48 39 -77 87 -77h31
c48 0 87 29 87 77zM189 580l50 215h25v-215h-75z" />
    <glyph glyph-name="hbar" unicode="&#x127;" 
d="M394 0h-60v366c0 48 -39 87 -87 87h-40c-48 0 -87 -39 -87 -87v-366h-60v580h-60v50h60v70h60v-70h181v-50h-181v-122c27 32 67 52 112 52h15c81 0 147 -66 147 -147v-363z" />
    <glyph glyph-name="Itilde" unicode="&#x128;" horiz-adv-x="223" 
d="M143 0h-63v700h63v-700zM178 844c27 0 42 23 42 56h46c0 -59 -29 -105 -89 -105c-61 0 -93 56 -133 56c-27 0 -41 -23 -41 -55h-46c0 59 29 104 89 104c58 0 86 -56 132 -56z" />
    <glyph glyph-name="itilde" unicode="&#x129;" horiz-adv-x="220" 
d="M140 0h-60v500h60v-500zM177 644c27 0 42 23 42 56h46c0 -59 -29 -105 -89 -105c-61 0 -93 56 -133 56c-27 0 -41 -23 -41 -55h-46c0 59 29 104 89 104c58 0 86 -56 132 -56z" />
    <glyph glyph-name="Imacron" unicode="&#x12a;" horiz-adv-x="223" 
d="M143 0h-63v700h63v-700zM-15 801v48h253v-48h-253z" />
    <glyph glyph-name="imacron" unicode="&#x12b;" horiz-adv-x="220" 
d="M140 0h-60v500h60v-500zM-16 601v48h253v-48h-253z" />
    <glyph glyph-name="Iogonek" unicode="&#x12e;" horiz-adv-x="223" 
d="M106 0h-26v700h63v-700c-6 -10 -11 -21 -16 -32c-8 -19 -16 -44 -16 -67c0 -39 20 -58 52 -58c15 0 26 5 35 10c5 3 10 6 15 11v-35c-5 -5 -11 -10 -18 -13c-11 -7 -27 -13 -47 -13c-47 0 -83 29 -83 85c0 31 9 59 20 79c6 12 13 23 21 33z" />
    <glyph glyph-name="iogonek" unicode="&#x12f;" horiz-adv-x="220" 
d="M103 0h-23v500h60v-500c-6 -10 -11 -21 -16 -32c-8 -19 -16 -44 -16 -67c0 -39 20 -58 52 -58c15 0 26 5 35 10c5 3 10 6 15 11v-35c-5 -5 -11 -10 -18 -13c-11 -7 -27 -13 -47 -13c-47 0 -83 29 -83 85c0 31 9 59 20 79c6 12 13 23 21 33zM145 620h-70v80h70v-80z" />
    <glyph glyph-name="Idotaccent" unicode="&#x130;" horiz-adv-x="223" 
d="M143 0h-63v700h63v-700zM149 801h-75v75h75v-75z" />
    <glyph glyph-name="dotlessi" unicode="&#x131;" horiz-adv-x="220" 
d="M140 0h-60v500h60v-500z" />
    <glyph glyph-name="IJ" unicode="&#x132;" horiz-adv-x="677" 
d="M143 0h-63v700h63v-700zM617 700v-538c0 -95 -77 -172 -172 -172h-20c-95 0 -172 77 -172 172v28l63 10v-38c0 -61 51 -112 112 -112h14c61 0 112 51 112 112v538h63z" />
    <glyph glyph-name="ij" unicode="&#x133;" horiz-adv-x="440" 
d="M145 620h-70v80h70v-80zM140 0h-60v500h60v-500zM365 620h-70v80h70v-80zM360 500v-553c0 -81 -66 -147 -147 -147v57c48 0 87 39 87 87v556h60z" />
    <glyph glyph-name="Jcircumflex" unicode="&#x134;" 
d="M394 700v-538c0 -95 -77 -172 -172 -172h-20c-95 0 -172 77 -172 172v28l63 10v-38c0 -61 51 -112 112 -112h14c61 0 112 51 112 112v538h63zM392 900l100 -120h-60l-70 80l-70 -80h-60l100 120h60z" />
    <glyph glyph-name="jcircumflex" unicode="&#x135;" horiz-adv-x="220" 
d="M140 500v-553c0 -81 -66 -147 -147 -147v57c48 0 87 39 87 87v556h60zM140 700l100 -120h-60l-70 80l-70 -80h-60l100 120h60z" />
    <glyph glyph-name="Kcommaaccent" unicode="&#x136;" horiz-adv-x="520" 
d="M500 0h-78l-264 350l264 350h78l-269 -350zM143 0h-63v700h63v-700zM297 -80l-50 -215h-25v215h75z" />
    <glyph glyph-name="kcommaaccent" unicode="&#x137;" 
d="M434 0h-78l-204 250l204 250h78l-209 -250zM140 0h-60v700h60v-700zM275 -80l-50 -215h-25v215h75z" />
    <glyph glyph-name="kgreenlandic" unicode="&#x138;" 
d="M434 0h-78l-204 250l204 250h78l-209 -250zM140 0h-60v500h60v-500z" />
    <glyph glyph-name="Lacute" unicode="&#x139;" horiz-adv-x="421" 
d="M401 0h-331v700h63v-640h268v-60zM263 900l-135 -120h-45l80 120h100z" />
    <glyph glyph-name="lacute" unicode="&#x13a;" horiz-adv-x="220" 
d="M140 0h-60v700h60v-700zM242 900l-135 -120h-45l80 120h100z" />
    <glyph glyph-name="Lcommaaccent" unicode="&#x13b;" horiz-adv-x="421" 
d="M401 0h-331v700h63v-640h268v-60zM268 -80l-50 -215h-25v215h75z" />
    <glyph glyph-name="lcommaaccent" unicode="&#x13c;" horiz-adv-x="220" 
d="M140 0h-60v700h60v-700zM147 -80l-50 -215h-25v215h75z" />
    <glyph glyph-name="Lcaron" unicode="&#x13d;" horiz-adv-x="421" 
d="M401 0h-331v700h63v-640h268v-60zM344 700l-50 -215h-25v215h75z" />
    <glyph glyph-name="lcaron" unicode="&#x13e;" horiz-adv-x="316" 
d="M140 0h-60v700h60v-700zM306 700l-50 -215h-25v215h75z" />
    <glyph glyph-name="Ldotaccent" unicode="&#x13f;" horiz-adv-x="411" 
d="M401 0h-331v700h63v-640h268v-60zM324 320h-75v75h75v-75z" />
    <glyph glyph-name="ldot" unicode="&#x140;" horiz-adv-x="325" 
d="M140 0h-60v700h60v-700zM295 320h-75v75h75v-75z" />
    <glyph glyph-name="Lslash" unicode="&#x141;" horiz-adv-x="411" 
d="M401 0h-331v263l-62 -35v57l62 35v380h63v-345l186 106v-57l-186 -106v-238h268v-60z" />
    <glyph glyph-name="lslash" unicode="&#x142;" horiz-adv-x="286" 
d="M173 0h-60v282l-83 -44v57l83 44v361h60v-329l83 44v-57l-83 -44v-314z" />
    <glyph glyph-name="Nacute" unicode="&#x143;" horiz-adv-x="554" 
d="M474 0h-33l-292 510l-6 30v-540h-63v700h33l292 -510l6 -30v540h63v-700zM407 900l-135 -120h-45l80 120h100z" />
    <glyph glyph-name="nacute" unicode="&#x144;" 
d="M394 0h-60v366c0 48 -39 87 -87 87h-40c-48 0 -87 -39 -87 -87v-366h-60v500h20l33 -51c27 37 70 61 119 61h15c81 0 147 -66 147 -147v-363zM337 700l-135 -120h-45l80 120h100z" />
    <glyph glyph-name="Ncommaaccent" unicode="&#x145;" horiz-adv-x="554" 
d="M474 0h-33l-292 510l-6 30v-540h-63v700h33l292 -510l6 -30v540h63v-700zM314 -80l-50 -215h-25v215h75z" />
    <glyph glyph-name="ncommaaccent" unicode="&#x146;" 
d="M394 0h-60v366c0 48 -39 87 -87 87h-40c-48 0 -87 -39 -87 -87v-366h-60v500h20l33 -51c27 37 70 61 119 61h15c81 0 147 -66 147 -147v-363zM264 -80l-50 -215h-25v215h75z" />
    <glyph glyph-name="Ncaron" unicode="&#x147;" horiz-adv-x="554" 
d="M474 0h-33l-292 510l-6 30v-540h-63v700h33l292 -510l6 -30v540h63v-700zM407 900l-100 -120h-60l-100 120h60l70 -80l70 80h60z" />
    <glyph glyph-name="ncaron" unicode="&#x148;" 
d="M394 0h-60v366c0 48 -39 87 -87 87h-40c-48 0 -87 -39 -87 -87v-366h-60v500h20l33 -51c27 37 70 61 119 61h15c81 0 147 -66 147 -147v-363zM357 700l-100 -120h-60l-100 120h60l70 -80l70 80h60z" />
    <glyph glyph-name="Omacron" unicode="&#x14c;" horiz-adv-x="534" 
d="M464 538v-376c0 -95 -77 -172 -172 -172h-50c-95 0 -172 77 -172 172v376c0 95 77 172 172 172h50c95 0 172 -77 172 -172zM401 162v376c0 61 -51 112 -112 112h-44c-61 0 -112 -51 -112 -112v-376c0 -61 51 -112 112 -112h44c61 0 112 51 112 112zM140 801v48h253v-48
h-253z" />
    <glyph glyph-name="omacron" unicode="&#x14d;" 
d="M394 363v-226c0 -81 -66 -147 -147 -147h-40c-81 0 -147 66 -147 147v226c0 81 66 147 147 147h40c81 0 147 -66 147 -147zM334 134v232c0 48 -39 87 -87 87h-40c-48 0 -87 -39 -87 -87v-232c0 -48 39 -87 87 -87h40c48 0 87 39 87 87zM101 601v48h253v-48h-253z" />
    <glyph glyph-name="Ohungarumlaut" unicode="&#x150;" horiz-adv-x="534" 
d="M464 538v-376c0 -95 -77 -172 -172 -172h-50c-95 0 -172 77 -172 172v376c0 95 77 172 172 172h50c95 0 172 -77 172 -172zM401 162v376c0 61 -51 112 -112 112h-44c-61 0 -112 -51 -112 -112v-376c0 -61 51 -112 112 -112h44c61 0 112 51 112 112zM319 900l-135 -120
h-45l80 120h100zM475 900l-135 -120h-45l80 120h100z" />
    <glyph glyph-name="ohungarumlaut" unicode="&#x151;" 
d="M394 363v-226c0 -81 -66 -147 -147 -147h-40c-81 0 -147 66 -147 147v226c0 81 66 147 147 147h40c81 0 147 -66 147 -147zM334 134v232c0 48 -39 87 -87 87h-40c-48 0 -87 -39 -87 -87v-232c0 -48 39 -87 87 -87h40c48 0 87 39 87 87zM269 700l-135 -120h-45l80 120h100
zM425 700l-135 -120h-45l80 120h100z" />
    <glyph glyph-name="OE" unicode="&#x152;" horiz-adv-x="785" 
d="M464 320v-158c0 -39 -13 -74 -34 -102h315v-60h-396c-19 -7 -37 -10 -57 -10h-50c-95 0 -172 77 -172 172v376c0 95 77 172 172 172h50c20 0 38 -3 57 -10h396v-60h-315c21 -29 34 -63 34 -102v-158h218v-60h-218zM401 162v376c0 61 -51 112 -112 112h-44
c-61 0 -112 -51 -112 -112v-376c0 -61 51 -112 112 -112h44c61 0 112 51 112 112z" />
    <glyph glyph-name="oe" unicode="&#x153;" horiz-adv-x="729" 
d="M669 157v-20c0 -81 -66 -147 -147 -147h-40c-48 0 -91 23 -118 59c-27 -36 -69 -59 -117 -59h-40c-81 0 -147 66 -147 147v226c0 81 66 147 147 147h40c48 0 90 -24 117 -59c27 35 70 59 118 59h40c81 0 147 -66 147 -147v-118h-274v-111c0 -48 39 -87 87 -87h40
c48 0 87 39 87 87v33zM334 134v232c0 48 -39 87 -87 87h-40c-48 0 -87 -39 -87 -87v-232c0 -48 39 -87 87 -87h40c48 0 87 39 87 87zM609 292v74c0 48 -39 87 -87 87h-40c-48 0 -87 -39 -87 -87v-74h214z" />
    <glyph glyph-name="Racute" unicode="&#x154;" horiz-adv-x="522" 
d="M482 0h-73l-190 299h-86v-299h-63v700h222c95 0 172 -77 172 -172v-57c0 -95 -77 -172 -172 -172zM401 471v57c0 61 -51 112 -112 112h-156v-281h156c61 0 112 51 112 112zM361 900l-135 -120h-45l80 120h100z" />
    <glyph glyph-name="racute" unicode="&#x155;" horiz-adv-x="287" 
d="M267 443h-60c-48 0 -87 -39 -87 -87v-356h-60v500h20l33 -51c27 37 70 61 119 61h35v-67zM274 700l-135 -120h-45l80 120h100z" />
    <glyph glyph-name="Rcommaaccent" unicode="&#x156;" horiz-adv-x="522" 
d="M482 0h-73l-190 299h-86v-299h-63v700h222c95 0 172 -77 172 -172v-57c0 -95 -77 -172 -172 -172zM401 471v57c0 61 -51 112 -112 112h-156v-281h156c61 0 112 51 112 112zM302 -80l-50 -215h-25v215h75z" />
    <glyph glyph-name="rcommaaccent" unicode="&#x157;" horiz-adv-x="287" 
d="M267 443h-60c-48 0 -87 -39 -87 -87v-356h-60v500h20l33 -51c27 37 70 61 119 61h35v-67zM135 -80l-50 -215h-25v215h75z" />
    <glyph glyph-name="Rcaron" unicode="&#x158;" horiz-adv-x="522" 
d="M482 0h-73l-190 299h-86v-299h-63v700h222c95 0 172 -77 172 -172v-57c0 -95 -77 -172 -172 -172zM401 471v57c0 61 -51 112 -112 112h-156v-281h156c61 0 112 51 112 112zM381 900l-100 -120h-60l-100 120h60l70 -80l70 80h60z" />
    <glyph glyph-name="rcaron" unicode="&#x159;" horiz-adv-x="287" 
d="M267 443h-60c-48 0 -87 -39 -87 -87v-356h-60v500h20l33 -51c27 37 70 61 119 61h35v-67zM284 700l-100 -120h-60l-100 120h60l70 -80l70 80h60z" />
    <glyph glyph-name="Sacute" unicode="&#x15a;" horiz-adv-x="519" 
d="M464 183v-21c0 -95 -82 -172 -177 -172h-50c-95 0 -177 77 -177 172v28l63 10v-38c0 -61 55 -112 117 -112h44c62 0 117 51 117 112v21c0 193 -331 101 -331 342v13c0 95 77 172 172 172h45c95 0 172 -77 172 -172v-18l-63 -10v28c0 61 -51 112 -112 112h-39
c-61 0 -112 -51 -112 -112v-13c0 -181 331 -102 331 -342zM379 900l-135 -120h-45l80 120h100z" />
    <glyph glyph-name="sacute" unicode="&#x15b;" horiz-adv-x="459" 
d="M404 127c0 -81 -72 -137 -152 -137h-40c-80 0 -152 66 -152 147v20l60 10v-33c0 -48 44 -87 92 -87h40c48 0 92 29 92 77c0 143 -274 58 -274 249c0 81 66 137 147 137h35c81 0 147 -66 147 -147v-2l-60 -10v15c0 48 -39 87 -87 87h-35c-48 0 -87 -29 -87 -77
c0 -137 274 -58 274 -249zM349 700l-135 -120h-45l80 120h100z" />
    <glyph glyph-name="Scedilla" unicode="&#x15e;" horiz-adv-x="519" 
d="M226 -73l39 63h-28c-95 0 -177 77 -177 172v28l63 10v-38c0 -61 55 -112 117 -112h44c62 0 117 51 117 112v21c0 193 -331 101 -331 342v13c0 95 77 172 172 172h45c95 0 172 -77 172 -172v-18l-63 -10v28c0 61 -51 112 -112 112h-39c-61 0 -112 -51 -112 -112v-13
c0 -181 331 -102 331 -342v-21c0 -89 -71 -159 -156 -170l-24 -42c12 -6 46 -26 46 -70c0 -51 -38 -81 -90 -81c-29 0 -53 12 -72 31l23 35c7 -8 25 -22 50 -22c24 0 43 14 43 39c0 31 -27 48 -58 45z" />
    <glyph glyph-name="scedilla" unicode="&#x15f;" horiz-adv-x="459" 
d="M196 -73l39 63h-23c-80 0 -152 66 -152 147v20l60 10v-33c0 -48 44 -87 92 -87h40c48 0 92 29 92 77c0 143 -274 58 -274 249c0 81 66 137 147 137h35c81 0 147 -66 147 -147v-2l-60 -10v15c0 48 -39 87 -87 87h-35c-48 0 -87 -29 -87 -77c0 -137 274 -58 274 -249
c0 -72 -57 -124 -126 -135l-24 -42c12 -6 46 -26 46 -70c0 -51 -38 -81 -90 -81c-29 0 -53 12 -72 31l23 35c7 -8 25 -22 50 -22c24 0 43 14 43 39c0 31 -27 48 -58 45z" />
    <glyph glyph-name="Scaron" unicode="&#x160;" horiz-adv-x="524" 
d="M464 183v-21c0 -95 -82 -172 -177 -172h-50c-95 0 -177 77 -177 172v28l63 10v-38c0 -61 55 -112 117 -112h44c62 0 117 51 117 112v21c0 193 -331 101 -331 342v13c0 95 77 172 172 172h45c95 0 172 -77 172 -172v-18l-63 -10v28c0 61 -51 112 -112 112h-39
c-61 0 -112 -51 -112 -112v-13c0 -181 331 -102 331 -342zM392 900l-100 -120h-60l-100 120h60l70 -80l70 80h60z" />
    <glyph glyph-name="scaron" unicode="&#x161;" horiz-adv-x="464" 
d="M404 127c0 -81 -72 -137 -152 -137h-40c-80 0 -152 66 -152 147v20l60 10v-33c0 -48 44 -87 92 -87h40c48 0 92 29 92 77c0 143 -274 58 -274 249c0 81 66 137 147 137h35c81 0 147 -66 147 -147v-2l-60 -10v15c0 48 -39 87 -87 87h-35c-48 0 -87 -29 -87 -77
c0 -137 274 -58 274 -249zM362 700l-100 -120h-60l-100 120h60l70 -80l70 80h60z" />
    <glyph glyph-name="Tcommaaccent" unicode="&#x162;" horiz-adv-x="437" 
d="M417 640h-167v-640h-63v640h-167v60h397v-60zM256 -80l-50 -215h-25v215h75z" />
    <glyph glyph-name="tcommaaccent" unicode="&#x163;" horiz-adv-x="347" 
d="M297 0h-55c-72 0 -132 60 -132 132v311h-90v57h90v120l60 10v-130h127v-57h-127v-314c0 -40 32 -72 72 -72h55v-57zM231 -80l-50 -215h-25v215h75z" />
    <glyph glyph-name="Tcaron" unicode="&#x164;" horiz-adv-x="437" 
d="M417 640h-167v-640h-63v640h-167v60h397v-60zM349 900l-100 -120h-60l-100 120h60l70 -80l70 80h60z" />
    <glyph glyph-name="tcaron" unicode="&#x165;" horiz-adv-x="347" 
d="M297 0h-55c-72 0 -132 60 -132 132v311h-90v57h90v120l60 10v-130h127v-57h-127v-314c0 -40 32 -72 72 -72h55v-57zM318 795l-50 -215h-25v215h75z" />
    <glyph glyph-name="Umacron" unicode="&#x16a;" horiz-adv-x="534" 
d="M464 700v-538c0 -95 -77 -172 -172 -172h-50c-95 0 -172 77 -172 172v538h63v-538c0 -61 51 -112 112 -112h44c61 0 112 51 112 112v538h63zM140 801v48h253v-48h-253z" />
    <glyph glyph-name="umacron" unicode="&#x16b;" 
d="M394 0h-20l-33 51c-27 -37 -70 -61 -119 -61h-15c-81 0 -147 66 -147 147v363h60v-366c0 -48 39 -87 87 -87h40c48 0 87 39 87 87v366h60v-500zM101 601v48h253v-48h-253z" />
    <glyph glyph-name="Uring" unicode="&#x16e;" horiz-adv-x="534" 
d="M464 700v-538c0 -95 -77 -172 -172 -172h-50c-95 0 -172 77 -172 172v538h63v-538c0 -61 51 -112 112 -112h44c61 0 112 51 112 112v538h63zM163 875c0 57 46 104 103 104s104 -47 104 -104s-47 -103 -104 -103s-103 46 -103 103zM213 875c0 -29 24 -54 53 -54
c31 0 54 25 54 54c0 31 -23 55 -54 55c-29 0 -53 -24 -53 -55z" />
    <glyph glyph-name="uring" unicode="&#x16f;" 
d="M394 0h-20l-33 51c-27 -37 -70 -61 -119 -61h-15c-81 0 -147 66 -147 147v363h60v-366c0 -48 39 -87 87 -87h40c48 0 87 39 87 87v366h60v-500zM123 663c0 57 46 104 103 104s104 -47 104 -104s-47 -103 -104 -103s-103 46 -103 103zM173 663c0 -29 24 -54 53 -54
c31 0 54 25 54 54c0 31 -23 55 -54 55c-29 0 -53 -24 -53 -55z" />
    <glyph glyph-name="Uhungarumlaut" unicode="&#x170;" horiz-adv-x="534" 
d="M464 700v-538c0 -95 -77 -172 -172 -172h-50c-95 0 -172 77 -172 172v538h63v-538c0 -61 51 -112 112 -112h44c61 0 112 51 112 112v538h63zM319 900l-135 -120h-45l80 120h100zM475 900l-135 -120h-45l80 120h100z" />
    <glyph glyph-name="uhungarumlaut" unicode="&#x171;" 
d="M394 0h-20l-33 51c-27 -37 -70 -61 -119 -61h-15c-81 0 -147 66 -147 147v363h60v-366c0 -48 39 -87 87 -87h40c48 0 87 39 87 87v366h60v-500zM279 700l-135 -120h-45l80 120h100zM435 700l-135 -120h-45l80 120h100z" />
    <glyph glyph-name="Uogonek" unicode="&#x172;" horiz-adv-x="534" 
d="M464 700v-538c0 -76 -47 -139 -115 -162c-6 -10 -11 -21 -16 -32c-8 -19 -16 -44 -16 -67c0 -39 20 -58 52 -58c15 0 26 5 35 10c5 3 10 6 15 11v-35c-5 -5 -11 -10 -18 -13c-11 -7 -27 -13 -47 -13c-47 0 -83 29 -83 85c0 47 22 84 34 103c-3 -1 -8 -1 -13 -1h-50
c-95 0 -172 77 -172 172v538h63v-538c0 -61 51 -112 112 -112h44c61 0 112 51 112 112v538h63z" />
    <glyph glyph-name="uogonek" unicode="&#x173;" 
d="M357 0l-16 51c-27 -37 -70 -61 -119 -61h-15c-81 0 -147 66 -147 147v363h60v-366c0 -48 39 -87 87 -87h40c48 0 87 39 87 87v366h60v-500c-6 -10 -11 -21 -16 -32c-8 -19 -16 -44 -16 -67c0 -39 20 -58 52 -58c15 0 26 5 35 10c5 3 10 6 15 11v-35
c-5 -5 -11 -10 -18 -13c-11 -7 -27 -13 -47 -13c-47 0 -83 29 -83 85c0 31 9 59 20 79c6 12 13 23 21 33z" />
    <glyph glyph-name="Ydieresis" unicode="&#x178;" horiz-adv-x="464" 
d="M444 700l-180 -365v-335h-63v334l-181 366h68l144 -291l144 291h68zM175 801h-75v75h75v-75zM364 801h-75v75h75v-75z" />
    <glyph glyph-name="Zacute" unicode="&#x179;" horiz-adv-x="474" 
d="M434 0h-394v30l312 610h-302v60h384v-30l-312 -610h312v-60zM367 900l-135 -120h-45l80 120h100z" />
    <glyph glyph-name="zacute" unicode="&#x17a;" horiz-adv-x="414" 
d="M374 0h-334v27l252 416h-242v57h324v-27l-252 -416h252v-57zM337 700l-135 -120h-45l80 120h100z" />
    <glyph glyph-name="Zdotaccent" unicode="&#x17b;" horiz-adv-x="474" 
d="M434 0h-394v30l312 610h-302v60h384v-30l-312 -610h312v-60zM264 801h-75v75h75v-75z" />
    <glyph glyph-name="zdotaccent" unicode="&#x17c;" horiz-adv-x="414" 
d="M374 0h-334v27l252 416h-242v57h324v-27l-252 -416h252v-57zM244 601h-75v75h75v-75z" />
    <glyph glyph-name="Zcaron" unicode="&#x17d;" horiz-adv-x="474" 
d="M434 0h-394v30l312 610h-302v60h384v-30l-312 -610h312v-60zM367 900l-100 -120h-60l-100 120h60l70 -80l70 80h60z" />
    <glyph glyph-name="zcaron" unicode="&#x17e;" horiz-adv-x="414" 
d="M374 0h-334v27l252 416h-242v57h324v-27l-252 -416h252v-57zM337 700l-100 -120h-60l-100 120h60l70 -80l70 80h60z" />
    <glyph glyph-name="florin" unicode="&#x192;" horiz-adv-x="367" 
d="M94 -71l61 434h-90l8 57h90l21 148c11 72 77 132 151 132h55l-8 -57h-55c-40 0 -77 -32 -82 -72l-22 -151h117l-8 -57h-117l-60 -431c-11 -72 -77 -132 -150 -132h-55l8 57h55c39 0 74 32 81 72z" />
    <glyph glyph-name="Scommaaccent" unicode="&#x218;" horiz-adv-x="519" 
d="M464 183v-21c0 -95 -82 -172 -177 -172h-50c-95 0 -177 77 -177 172v28l63 10v-38c0 -61 55 -112 117 -112h44c62 0 117 51 117 112v21c0 193 -331 101 -331 342v13c0 95 77 172 172 172h45c95 0 172 -77 172 -172v-18l-63 -10v28c0 61 -51 112 -112 112h-39
c-61 0 -112 -51 -112 -112v-13c0 -181 331 -102 331 -342zM317 -80l-50 -215h-25v215h75z" />
    <glyph glyph-name="scommaaccent" unicode="&#x219;" horiz-adv-x="459" 
d="M404 127c0 -81 -72 -137 -152 -137h-40c-80 0 -152 66 -152 147v20l60 10v-33c0 -48 44 -87 92 -87h40c48 0 92 29 92 77c0 143 -274 58 -274 249c0 81 66 137 147 137h35c81 0 147 -66 147 -147v-2l-60 -10v15c0 48 -39 87 -87 87h-35c-48 0 -87 -29 -87 -77
c0 -137 274 -58 274 -249zM277 -80l-50 -215h-25v215h75z" />
    <glyph glyph-name="uni021A" unicode="&#x21a;" horiz-adv-x="437" 
d="M417 640h-167v-640h-63v640h-167v60h397v-60zM256 -80l-50 -215h-25v215h75z" />
    <glyph glyph-name="uni021B" unicode="&#x21b;" horiz-adv-x="347" 
d="M297 0h-55c-72 0 -132 60 -132 132v311h-90v57h90v120l60 10v-130h127v-57h-127v-314c0 -40 32 -72 72 -72h55v-57zM231 -80l-50 -215h-25v215h75z" />
    <glyph glyph-name="dotlessj" unicode="&#x237;" horiz-adv-x="220" 
d="M140 500v-553c0 -81 -66 -147 -147 -147v57c48 0 87 39 87 87v556h60z" />
    <glyph glyph-name="circumflex" unicode="&#x2c6;" horiz-adv-x="460" 
d="M260 700l100 -120h-60l-70 80l-70 -80h-60l100 120h60z" />
    <glyph glyph-name="caron" unicode="&#x2c7;" horiz-adv-x="460" 
d="M360 700l-100 -120h-60l-100 120h60l70 -80l70 80h60z" />
    <glyph glyph-name="breve" unicode="&#x2d8;" horiz-adv-x="465" 
d="M100 706h46c0 -45 38 -67 86 -67s87 22 87 67h46c0 -75 -59 -113 -133 -113c-75 0 -132 38 -132 113z" />
    <glyph glyph-name="dotaccent" unicode="&#x2d9;" horiz-adv-x="275" 
d="M175 601h-75v75h75v-75z" />
    <glyph glyph-name="ring" unicode="&#x2da;" horiz-adv-x="407" 
d="M100 663c0 57 46 104 103 104s104 -47 104 -104s-47 -103 -104 -103s-103 46 -103 103zM150 663c0 -29 24 -54 53 -54c31 0 54 25 54 54c0 31 -23 55 -54 55c-29 0 -53 -24 -53 -55z" />
    <glyph glyph-name="ogonek" unicode="&#x2db;" horiz-adv-x="348" 
d="M141 0h37c-6 -10 -11 -21 -16 -32c-8 -19 -16 -44 -16 -67c0 -39 20 -58 52 -58c15 0 26 5 35 10c5 3 10 6 15 11v-35c-5 -5 -11 -10 -18 -13c-11 -7 -27 -13 -47 -13c-47 0 -83 29 -83 85c0 31 9 59 20 79c6 12 13 23 21 33z" />
    <glyph glyph-name="tilde" unicode="&#x2dc;" horiz-adv-x="509" 
d="M321 644c27 0 42 23 42 56h46c0 -59 -29 -105 -89 -105c-61 0 -93 56 -133 56c-27 0 -41 -23 -41 -55h-46c0 59 29 104 89 104c58 0 86 -56 132 -56z" />
    <glyph glyph-name="hungarumlaut" unicode="&#x2dd;" horiz-adv-x="536" 
d="M280 700l-135 -120h-45l80 120h100zM436 700l-135 -120h-45l80 120h100z" />
    <glyph glyph-name="dotaccentcmb" unicode="&#x307;" horiz-adv-x="275" 
d="M175 601h-75v75h75v-75z" />
    <glyph glyph-name="pi" unicode="&#x3c0;" horiz-adv-x="619" 
d="M147 0v421h-97v59h509v-59h-107v-290c0 -40 32 -72 72 -72h35v-59h-35c-73 0 -134 56 -134 129v292h-181v-421h-62z" />
    <glyph glyph-name="endash" unicode="&#x2013;" horiz-adv-x="550" 
d="M50 363h450v-57h-450v57z" />
    <glyph glyph-name="emdash" unicode="&#x2014;" horiz-adv-x="1000" 
d="M50 363h900v-57h-900v57z" />
    <glyph glyph-name="quoteleft" unicode="&#x2018;" horiz-adv-x="195" 
d="M70 485l50 215h25v-215h-75z" />
    <glyph glyph-name="quoteright" unicode="&#x2019;" horiz-adv-x="195" 
d="M145 700l-50 -215h-25v215h75z" />
    <glyph glyph-name="quotesinglbase" unicode="&#x201a;" horiz-adv-x="215" 
d="M145 75l-50 -215h-25v215h75z" />
    <glyph glyph-name="quotedblleft" unicode="&#x201c;" horiz-adv-x="315" 
d="M170 485l50 215h25v-215h-75zM50 485l50 215h25v-215h-75z" />
    <glyph glyph-name="quotedblright" unicode="&#x201d;" horiz-adv-x="315" 
d="M145 700l-50 -215h-25v215h75zM265 700l-50 -215h-25v215h75z" />
    <glyph glyph-name="quotedblbase" unicode="&#x201e;" horiz-adv-x="315" 
d="M145 75l-50 -215h-25v215h75zM265 75l-50 -215h-25v215h75z" />
    <glyph glyph-name="dagger" unicode="&#x2020;" horiz-adv-x="452" 
d="M40 504l154 -11l-3 207h70l-3 -207l154 11v-71l-155 11l-8 -644h-46l-9 644l-154 -11v71z" />
    <glyph glyph-name="daggerdbl" unicode="&#x2021;" horiz-adv-x="452" 
d="M40 504l156 -11l-5 207h70l-5 -207l156 11v-71l-157 11l-5 -195l4 -193l158 11v-71l-156 10l5 -206h-70l5 207l-156 -11v71l157 -11l5 192l-5 196l-157 -11v71z" />
    <glyph glyph-name="bullet" unicode="&#x2022;" horiz-adv-x="468" 
d="M60 346c0 96 78 174 174 174s174 -78 174 -174s-78 -174 -174 -174s-174 78 -174 174z" />
    <glyph glyph-name="ellipsis" unicode="&#x2026;" horiz-adv-x="725" 
d="M145 0h-75v75h75v-75zM400 0h-75v75h75v-75zM655 0h-75v75h75v-75z" />
    <glyph glyph-name="perthousand" unicode="&#x2030;" horiz-adv-x="893" 
d="M258 617v-170c0 -47 -38 -87 -87 -87h-14c-49 0 -87 40 -87 87v170c0 47 38 87 87 87h14c49 0 87 -40 87 -87zM210 447v170c0 23 -18 40 -41 40h-10c-23 0 -41 -17 -41 -40v-170c0 -23 18 -40 41 -40h10c23 0 41 17 41 40zM585 253v-170c0 -47 -38 -87 -87 -87h-14
c-49 0 -87 40 -87 87v170c0 47 38 87 87 87h14c49 0 87 -40 87 -87zM537 83v170c0 23 -18 40 -41 40h-10c-23 0 -41 -17 -41 -40v-170c0 -23 18 -40 41 -40h10c23 0 41 17 41 40zM156 0h-56l399 700h56zM833 253v-170c0 -47 -38 -87 -87 -87h-14c-49 0 -87 40 -87 87v170
c0 47 38 87 87 87h14c49 0 87 -40 87 -87zM785 83v170c0 23 -18 40 -41 40h-10c-23 0 -41 -17 -41 -40v-170c0 -23 18 -40 41 -40h10c23 0 41 17 41 40z" />
    <glyph glyph-name="guilsinglleft" unicode="&#x2039;" horiz-adv-x="304" 
d="M244 61l-20 -20l-184 187l184 187l20 -20l-122 -167z" />
    <glyph glyph-name="guilsinglright" unicode="&#x203a;" horiz-adv-x="304" 
d="M80 41l-20 20l122 167l-122 167l20 20l184 -187z" />
    <glyph glyph-name="fraction" unicode="&#x2044;" horiz-adv-x="457" 
d="M57 0h-56l399 700h56z" />
    <glyph glyph-name="Euro" unicode="&#x20ac;" horiz-adv-x="564" 
d="M311 270h-138v-108c0 -61 51 -112 112 -112h44c61 0 112 51 112 112v28l63 -10v-18c0 -95 -77 -172 -172 -172h-50c-95 0 -172 77 -172 172v108h-70v50h70v60h-70v50h70v108c0 95 77 172 172 172h50c95 0 172 -77 172 -172v-18l-63 -10v28c0 61 -51 112 -112 112h-44
c-61 0 -112 -51 -112 -112v-108h231l-29 -50h-202v-60h167z" />
    <glyph glyph-name="trademark" unicode="&#x2122;" horiz-adv-x="720" 
d="M650 370h-51v185l-90 -185h-27l-90 184v-184h-52v330h31l124 -253l125 253h30v-330zM292 654h-100v-284h-52v284h-100v46h252v-46z" />
    <glyph glyph-name="Omega" unicode="&#x2126;" horiz-adv-x="534" 
d="M289 650h-44c-61 0 -112 -51 -112 -112v-373c0 -63 29 -112 92 -112h15v-53h-177v53h64c-37 31 -57 82 -57 139v346c0 95 77 172 172 172h50c95 0 172 -77 172 -172v-346c0 -57 -21 -108 -58 -139h65v-53h-177v53h19c60 3 88 51 88 112v373c0 61 -51 112 -112 112z" />
    <glyph glyph-name="arrowleft" unicode="&#x2190;" horiz-adv-x="880" 
d="M90 351l350 351l44 -44l-277 -277h583v-62h-583l277 -277l-44 -44l-350 351v2z" />
    <glyph glyph-name="arrowup" unicode="&#x2191;" horiz-adv-x="884" 
d="M443 700l351 -350l-44 -44l-277 277v-583h-62v583l-277 -277l-44 44l351 350h2z" />
    <glyph glyph-name="arrowright" unicode="&#x2192;" horiz-adv-x="880" 
d="M440 702l350 -351v-2l-350 -351l-44 44l277 277h-583v62h583l-277 277z" />
    <glyph glyph-name="arrowdown" unicode="&#x2193;" horiz-adv-x="884" 
d="M794 350l-351 -350h-2l-351 350l44 44l277 -277v583h62v-583l277 277z" />
    <glyph glyph-name="partialdiff" unicode="&#x2202;" 
d="M120 346v-212c0 -48 39 -87 87 -87h40c48 0 87 39 87 87v212c0 48 -39 87 -87 87h-40c-48 0 -87 -39 -87 -87zM138 612l-49 31c27 40 72 67 123 67h35c81 0 147 -66 147 -147v-426c0 -81 -66 -147 -147 -147h-40c-81 0 -147 66 -147 147v206c0 81 66 147 147 147h15
c45 0 85 -20 112 -52v128c0 48 -39 87 -87 87h-35c-31 0 -59 -16 -74 -41z" />
    <glyph glyph-name="Delta" unicode="&#x2206;" horiz-adv-x="502" 
d="M10 0l235 700h11l236 -700h-482zM240 535l-158 -475h320l-158 475l-2 26z" />
    <glyph glyph-name="product" unicode="&#x220f;" horiz-adv-x="634" 
d="M40 640v60h554v-60h-80v-640h-63v640h-268v-640h-63v640h-80z" />
    <glyph glyph-name="summation" unicode="&#x2211;" horiz-adv-x="494" 
d="M336 365v-30l-191 -275h309v-60h-404v30l222 320l-222 320v30h404v-60h-309z" />
    <glyph glyph-name="minus" unicode="&#x2212;" horiz-adv-x="580" 
d="M40 382h500v-63h-500v63z" />
    <glyph glyph-name="radical" unicode="&#x221a;" horiz-adv-x="499" 
d="M42 319v63h136l74 -228l2 -26l2 26l218 677h63l-267 -831h-33l-103 319h-92z" />
    <glyph glyph-name="infinity" unicode="&#x221e;" horiz-adv-x="796" 
d="M256 126h-24c-95 0 -172 77 -172 172v30c0 95 77 172 172 172h24c60 0 111 -30 142 -75c31 45 82 75 142 75h24c95 0 172 -77 172 -172v-30c0 -95 -77 -172 -172 -172h-24c-60 0 -111 30 -142 75c-31 -45 -82 -75 -142 -75zM540 189h24c61 0 112 51 112 112v24
c0 61 -51 112 -112 112h-24c-61 0 -112 -51 -112 -112v-24c0 -61 51 -112 112 -112zM232 189h24c61 0 112 51 112 112v24c0 61 -51 112 -112 112h-24c-61 0 -112 -51 -112 -112v-24c0 -61 51 -112 112 -112z" />
    <glyph glyph-name="integral" unicode="&#x222b;" horiz-adv-x="384" 
d="M162 -101v809c0 109 59 162 119 162c40 0 63 -22 63 -53c0 -28 -21 -51 -50 -51c-27 0 -52 16 -52 55c-13 -11 -20 -27 -20 -50v-809c0 -109 -59 -162 -119 -162c-40 0 -63 22 -63 53c0 28 21 51 50 51c27 0 52 -16 52 -55c13 11 20 27 20 50z" />
    <glyph glyph-name="approxequal" unicode="&#x2248;" horiz-adv-x="654" 
d="M438 251c49 0 74 27 74 67h62c0 -69 -43 -126 -137 -126c-96 0 -156 68 -220 68c-48 0 -74 -26 -74 -67h-63c0 69 45 126 138 126c95 0 154 -68 220 -68zM438 435c49 0 74 27 74 67h62c0 -69 -43 -126 -137 -126c-96 0 -156 68 -220 68c-48 0 -74 -26 -74 -67h-63
c0 69 45 126 138 126c95 0 154 -68 220 -68z" />
    <glyph glyph-name="notequal" unicode="&#x2260;" horiz-adv-x="660" 
d="M80 289h161l103 123h-264v63h317l109 130h74l-109 -130h109v-63h-162l-103 -123h265v-63h-317l-109 -130h-74l109 130h-109v63z" />
    <glyph glyph-name="lessequal" unicode="&#x2264;" horiz-adv-x="660" 
d="M80 404l500 193v-63l-426 -163l426 -162v-63l-500 193v65zM80 100h500v-63h-500v63z" />
    <glyph glyph-name="greaterequal" unicode="&#x2265;" horiz-adv-x="660" 
d="M80 209l425 162l-425 163v63l500 -193v-65l-500 -193v63zM80 100h500v-63h-500v63z" />
    <glyph glyph-name="lozenge" unicode="&#x25ca;" horiz-adv-x="519" 
d="M121 350l139 -252l138 252l-138 252zM50 350l193 350h33l193 -350l-193 -350h-33z" />
    <glyph glyph-name="commaaccent" unicode="&#xf6c3;" horiz-adv-x="215" 
d="M145 -80l-50 -215h-25v215h75z" />
    <glyph glyph-name="madslug" unicode="&#xf800;" horiz-adv-x="856" 
d="M628 43l2 -2c-60 -37 -128 -60 -203 -60c-203 0 -367 165 -367 370c0 132 74 250 135 250c31 0 48 -19 48 -51c0 -56 -59 -282 -59 -295c0 -8 8 -11 17 -11c21 0 95 15 100 26c0 10 59 249 59 307c0 56 -52 82 -113 82c-4 0 -8 -1 -12 -1c-3 -1 -5 -1 -7 -1l-2 3
c59 37 125 60 201 60c204 0 369 -165 369 -370c0 -132 -74 -250 -135 -250c-31 0 -48 19 -48 51c0 57 59 280 59 294c0 9 -8 12 -17 12c-21 0 -95 -15 -100 -26c-4 -8 -59 -251 -59 -307s52 -82 113 -82h12c3 0 5 0 7 1zM456 224c4 20 57 249 57 268c0 6 -5 9 -16 9
c-20 0 -78 -8 -97 -24c-4 -20 -57 -249 -57 -268c0 -7 5 -10 16 -10c18 0 79 9 97 25z" />
    <glyph glyph-name="fi" unicode="&#xfb01;" horiz-adv-x="507" 
d="M287 643h-55c-40 0 -72 -32 -72 -72v-71h117v-57h-117v-443h-60v443h-90v57h90v68c0 72 60 132 132 132h55v-57zM432 620h-70v80h70v-80zM427 0h-60v500h60v-500z" />
    <glyph glyph-name="fl" unicode="&#xfb02;" horiz-adv-x="507" 
d="M287 643h-55c-40 0 -72 -32 -72 -72v-71h117v-57h-117v-443h-60v443h-90v57h90v68c0 72 60 132 132 132h55v-57zM427 0h-60v700h60v-700z" />
    <glyph glyph-name="dieresis.cap" horiz-adv-x="464" 
d="M175 801h-75v75h75v-75zM364 801h-75v75h75v-75z" />
    <glyph glyph-name="circumflex.cap" horiz-adv-x="460" 
d="M260 900l100 -120h-60l-70 80l-70 -80h-60l100 120h60z" />
    <glyph glyph-name="tilde.cap" horiz-adv-x="522" 
d="M321 844c27 0 42 23 42 56h46c0 -59 -29 -105 -89 -105c-61 0 -93 56 -133 56c-27 0 -41 -23 -41 -55h-46c0 59 29 104 89 104c58 0 86 -56 132 -56z" />
    <glyph glyph-name="acute.cap" horiz-adv-x="380" 
d="M280 900l-135 -120h-45l80 120h100z" />
    <glyph glyph-name="caron.cap" horiz-adv-x="460" 
d="M360 900l-100 -120h-60l-100 120h60l70 -80l70 80h60z" />
    <glyph glyph-name="grave.cap" horiz-adv-x="380" 
d="M235 780l-135 120h100l80 -120h-45z" />
    <glyph glyph-name="ring.cap" horiz-adv-x="407" 
d="M100 875c0 57 46 104 103 104s104 -47 104 -104s-47 -103 -104 -103s-103 46 -103 103zM150 875c0 -29 24 -54 53 -54c31 0 54 25 54 54c0 31 -23 55 -54 55c-29 0 -53 -24 -53 -55z" />
    <glyph glyph-name="uni018f" unicode="&#x18f;" horiz-adv-x="534" 
d="M289 650h-44c-61 0 -112 -51 -112 -112v-38l-63 10v28c0 95 77 172 172 172h50c95 0 172 -77 172 -172v-376c0 -95 -77 -172 -172 -172h-50c-95 0 -172 77 -172 172v218h331v158c0 61 -51 112 -112 112zM245 50h44c61 0 112 51 112 112v158h-268v-158
c0 -61 51 -112 112 -112z" />
    <glyph glyph-name="uni0259" unicode="&#x259;" 
d="M60 343v20c0 81 66 147 147 147h40c81 0 147 -66 147 -147v-226c0 -81 -66 -147 -147 -147h-40c-81 0 -147 66 -147 147v118h274v111c0 48 -39 87 -87 87h-40c-48 0 -87 -39 -87 -87v-33zM120 208v-74c0 -48 39 -87 87 -87h40c48 0 87 39 87 87v74h-214z" />
    <glyph glyph-name="quotedbl" unicode="&#x22;" horiz-adv-x="315" 
d="M135 700l-25 -215h-25l-25 215h75zM255 700l-25 -215h-25l-25 215h75z" />
    <glyph glyph-name="exclam" unicode="!" horiz-adv-x="209" 
d="M149 700l-27 -488h-35l-27 488h89zM142 0h-75v75h75v-75z" />
    </font>
</defs>
</svg>
